<svg width="15" height="12" viewBox="0 0 15 12" fill="none" xmlns="http://www.w3.org/2000/svg">
<path d="M0.749995 6.74996H12.4394L8.4697 10.7197C8.17682 11.0126 8.17682 11.4873 8.4697 11.7802C8.76257 12.073 9.2375 12.073 9.53038 11.7802L14.7803 6.53021C15.0732 6.23734 15.0732 5.7624 14.7803 5.46972L9.53038 0.219749C9.38394 0.0733122 9.19194 0 8.99994 0C8.80813 0 8.61613 0.0733122 8.4697 0.219749C8.17682 0.512622 8.17682 0.987556 8.4697 1.28024L12.4394 5.24997H0.749995C0.33581 5.24997 0 5.58578 0 5.99996C0 6.41415 0.33581 6.74996 0.749995 6.74996Z" fill="white"/>
</svg>
