<svg width="10" height="8" viewBox="0 0 10 8" fill="none" xmlns="http://www.w3.org/2000/svg">
<path d="M9.5 4.49997H1.70705L4.35354 7.14645C4.54878 7.3417 4.54878 7.6582 4.35354 7.85345C4.15829 8.0487 3.84166 8.0487 3.64642 7.85345L0.146437 4.35347C-0.0488119 4.15822 -0.0488119 3.8416 0.146437 3.64648L3.64642 0.146499C3.74404 0.0488748 3.87204 0 4.00004 0C4.12791 0 4.25591 0.0488748 4.35354 0.146499C4.54878 0.341748 4.54878 0.658371 4.35354 0.853495L1.70705 3.49998H9.5C9.77613 3.49998 10 3.72385 10 3.99997C10 4.2761 9.77613 4.49997 9.5 4.49997Z" fill="white"/>
</svg>
