<svg width="6" height="5" viewBox="0 0 6 5" fill="none" xmlns="http://www.w3.org/2000/svg">
<path d="M0.299998 2.09994H4.97577L3.38788 0.512054C3.27073 0.394905 3.27073 0.205006 3.38788 0.0878563C3.50503 -0.0292931 3.695 -0.0292931 3.81215 0.0878563L5.91214 2.18784C6.02929 2.30499 6.02929 2.49497 5.91214 2.61204L3.81215 4.71203C3.75358 4.7706 3.67678 4.79993 3.59998 4.79993C3.52325 4.79993 3.44645 4.7706 3.38788 4.71203C3.27073 4.59488 3.27073 4.4049 3.38788 4.28783L4.97577 2.69994H0.299998C0.134324 2.69994 0 2.56562 0 2.39994C0 2.23427 0.134324 2.09994 0.299998 2.09994Z" fill="#FB5B21"/>
</svg>
