<svg width="25" height="28" viewBox="0 0 25 28" fill="none" xmlns="http://www.w3.org/2000/svg">
<path d="M21.5941 14.536H21.0078H19.6573V14.3188C19.6573 13.9591 19.3655 13.6678 19.0061 13.6678H5.99405C5.63472 13.6678 5.3437 13.9591 5.3437 14.3188V14.536H3.64463H3.38675H3.35214C2.90042 14.536 3.34307 14.2332 3.35088 14.2286C3.58075 14.0989 3.86058 13.9464 4.14466 13.8038L12.4675 9.64232L12.4409 9.67437L12.4414 9.67393L12.4629 9.68556L20.7227 13.8043L20.861 13.8869L21.3123 14.1347C21.3149 14.1351 21.3165 14.1366 21.3182 14.1374L21.5932 14.2884C21.5941 14.288 22.0074 14.536 21.5941 14.536ZM17.9222 26.6491H7.22016C6.92532 26.6491 6.68513 26.4096 6.68513 26.1143V24.3488H18.4574V26.1143C18.4574 26.4096 18.2174 26.6491 17.9222 26.6491ZM18.4574 22.9932H6.68552V15.4125C6.68552 15.151 6.87722 14.9426 7.12648 14.8971L8.19545 14.8777H17.9222C18.2174 14.8777 18.4574 15.1172 18.4574 15.4125V22.9932ZM23.6392 13.772L20.362 12.0219L13.1385 8.48057V6.62988C13.1385 6.15219 13.6493 5.94322 13.6493 5.94322L13.6501 5.93841C14.6624 5.47972 15.3696 4.46917 15.3696 3.28448C15.3697 1.66803 14.0588 0.357178 12.4418 0.357178C11.147 0.357178 10.0603 1.20157 9.67714 2.36709C9.67506 2.37806 9.54386 2.89201 9.90619 2.89201H10.472C10.5648 2.88381 10.7332 2.8332 10.8644 2.58455C10.8644 2.58264 10.8657 2.58264 10.8668 2.58009C11.112 1.947 11.7219 1.4955 12.4423 1.4955C13.3782 1.4955 14.1361 2.25406 14.1361 3.18993C14.1361 3.91683 13.6742 4.52481 13.0298 4.76331L13.0348 4.76834C13.0348 4.76834 12.9901 4.781 12.9302 4.80083C12.9138 4.8059 12.8982 4.81284 12.8822 4.81774C12.5566 4.93476 11.8073 5.29409 11.8073 6.13974V6.27488V8.45416L5.09492 11.7762L1.18119 13.8656C1.00592 13.9784 0.719542 14.2433 0.714294 14.8034V15.2176C0.714294 15.5769 1.0051 15.8679 1.36486 15.8679H5.34335V27.3311C5.34335 27.6904 5.63438 27.9814 5.99375 27.9814H19.0053C19.3647 27.9814 19.6557 27.6904 19.6557 27.3311V15.868H23.6338C23.994 15.868 24.285 15.5769 24.285 15.2176V14.7823C24.3102 14.1746 23.6472 13.7762 23.6392 13.772Z" fill="#FB5B21"/>
</svg>
