<svg width="25" height="24" viewBox="0 0 25 24" fill="none" xmlns="http://www.w3.org/2000/svg">
<path d="M3.80807 17.9698L2.28575 19.4922C2.23664 19.5413 2.23664 19.5904 2.28575 19.5904L5.57593 22.8806C5.62503 22.9297 5.67414 22.9297 5.67414 22.8806L7.19646 21.3582" stroke="#FB5B21" stroke-miterlimit="10"/>
<path d="M5.42858 19.7377L4.74108 20.3761L2.8259 18.4609" stroke="#FB5B21" stroke-miterlimit="10"/>
<path d="M8.91521 17.9207L11.567 15.2689L11.7634 15.4653C12.1072 15.8091 12.6965 15.8091 13.0893 15.4653L13.5804 14.9743C13.9241 14.6305 13.9241 14.0412 13.5804 13.6484L11.3706 11.4386C10.2902 10.3582 8.52235 10.3582 7.39289 11.4386L3.66074 15.2198C3.21878 15.6618 3.21878 16.3984 3.66074 16.8895L8.27681 21.5055C8.71878 21.9475 9.45538 21.9475 9.94646 21.5055L11.6161 19.8359C12.2054 19.2466 12.2054 18.2645 11.6161 17.6752L11.0268 17.0859" stroke="#FB5B21" stroke-miterlimit="10"/>
<path d="M21.192 5.49662L22.7143 3.9743C22.7634 3.92519 22.7634 3.87608 22.7143 3.87608L19.4242 0.585903C19.375 0.536795 19.3259 0.536795 19.3259 0.585903L17.8036 2.10822" stroke="#FB5B21" stroke-miterlimit="10"/>
<path d="M19.5714 3.72885L20.2589 3.09045L22.1741 5.00563" stroke="#FB5B21" stroke-miterlimit="10"/>
<path d="M16.0849 5.54578L13.4331 8.19756L13.2366 8.00113C12.8929 7.65738 12.3036 7.65738 11.9107 8.00113L11.4197 8.4922C11.0759 8.83595 11.0759 9.42524 11.4197 9.8181L13.6295 12.0279C14.7099 13.1083 16.4777 13.1083 17.6072 12.0279L21.3393 8.29578C21.7813 7.85381 21.7813 7.1172 21.3393 6.62613L16.7232 2.01006C16.2813 1.5681 15.5447 1.5681 15.0536 2.01006L13.384 3.67971C12.7947 4.26899 12.7947 5.25113 13.384 5.84042L13.9732 6.4297" stroke="#FB5B21" stroke-miterlimit="10"/>
<path d="M18.9821 14.1886L21.1429 14.9743" stroke="#FB5B21" stroke-miterlimit="10"/>
<path d="M17.8036 16.202L19.5714 17.6752" stroke="#FB5B21" stroke-miterlimit="10"/>
<path d="M15.9866 17.7244L17.1161 19.6887" stroke="#FB5B21" stroke-miterlimit="10"/>
<path d="M6.16518 9.52347L4.05357 8.78687" stroke="#FB5B21" stroke-miterlimit="10"/>
<path d="M7.34375 7.51008L5.5759 6.03687" stroke="#FB5B21" stroke-miterlimit="10"/>
<path d="M9.16075 5.98776L8.03128 3.97437" stroke="#FB5B21" stroke-miterlimit="10"/>
</svg>
