<svg width="25" height="20" viewBox="0 0 25 20" fill="none" xmlns="http://www.w3.org/2000/svg">
<path d="M23.4233 17.9642H15.4224V19.9285H18.6324H21.3632H23.4712C23.6628 19.9285 23.8305 19.8806 23.9743 19.7848C24.118 19.689 24.2058 19.5932 24.2378 19.4973L24.2857 19.3536V18.8745C24.2857 18.8106 24.2777 18.7228 24.2617 18.611C24.2458 18.4992 24.1659 18.3635 24.0222 18.2038C23.8784 18.0441 23.6788 17.9642 23.4233 17.9642Z" fill="#FB5B21"/>
<path d="M22.3214 17.5811C22.8644 17.5811 23.3275 17.3895 23.7108 17.0062C24.0941 16.6229 24.2857 16.1518 24.2857 15.5929C24.2857 15.0339 24.0941 14.5628 23.7108 14.1795C23.3275 13.7963 22.8644 13.6046 22.3214 13.6046C21.7784 13.6046 21.3153 13.7963 20.932 14.1795C20.5488 14.5628 20.3571 15.0339 20.3571 15.5929C20.3571 16.1518 20.5488 16.6229 20.932 17.0062C21.3153 17.3895 21.7784 17.5811 22.3214 17.5811Z" fill="#FB5B21"/>
<path d="M18.1533 17.4853C18.6643 17.4853 19.1034 17.3176 19.4708 16.9822C19.8381 16.6468 20.0217 16.2237 20.0217 15.7126C20.0217 15.2016 19.846 14.8103 19.4947 14.5388C19.1434 14.2673 18.6962 14.1316 18.1533 14.1316L15.4224 14.467V17.4853H18.1533Z" fill="#FB5B21"/>
<path d="M9.33799 4.69343C9.94486 4.69343 10.4559 4.47784 10.8711 4.04665C11.2863 3.61547 11.4939 3.09647 11.4939 2.4896C11.4939 1.88273 11.2863 1.36373 10.8711 0.932544C10.4559 0.501359 9.94486 0.285767 9.33799 0.285767C8.73112 0.285767 8.21212 0.501359 7.78093 0.932544C7.34975 1.36373 7.13416 1.88273 7.13416 2.4896C7.13416 3.09647 7.34975 3.61547 7.78093 4.04665C8.21212 4.47784 8.73112 4.69343 9.33799 4.69343Z" fill="#FB5B21"/>
<path d="M7.08624 11.784V11.7361L6.08014 9.4364V14.0357H9.05052L9.67334 13.365L7.94861 12.6942C7.53338 12.5346 7.24592 12.2311 7.08624 11.784Z" fill="#FB5B21"/>
<path d="M7.70906 11.5445C7.80488 11.8001 7.98056 11.9598 8.23606 12.0236L11.5897 13.2692C11.8133 13.3651 12.0369 13.3731 12.2605 13.2932C12.484 13.2133 12.6357 13.0616 12.7156 12.8381C12.7955 12.6145 12.7955 12.3909 12.7156 12.1673C12.6357 11.9437 12.484 11.784 12.2605 11.6882L9.14634 10.5384L8.18815 8.23875L8.81098 7.9992L9.62544 9.96349L12.0209 10.8259V8.43039L13.2666 9.19694L13.8894 12.3111C13.9532 12.5346 14.097 12.7023 14.3206 12.8141C14.5442 12.926 14.7677 12.9419 14.9913 12.862C15.2149 12.7821 15.3746 12.6384 15.4704 12.4308C15.5662 12.2232 15.5822 12.0076 15.5183 11.784L14.7997 8.71785C14.7677 8.55816 14.6719 8.41444 14.5122 8.28666C14.4483 8.19084 14.2247 7.93534 13.8415 7.52011C13.4582 7.10488 13.0989 6.71365 12.7635 6.34633C12.4281 5.97901 12.2445 5.77942 12.2125 5.74746C11.8612 5.39614 11.3821 5.22046 10.7753 5.22046H7.85279C7.08624 5.22046 6.56724 5.51592 6.29573 6.10678C6.02423 6.69765 5.98432 7.24861 6.17596 7.75966L7.70906 11.5445Z" fill="#FB5B21"/>
<path d="M14.9434 14.5148H1.67248C1.41698 14.5148 1.19339 14.5946 1.00175 14.7543C0.810113 14.914 0.714294 15.1216 0.714294 15.3771V15.8083V19.9285H1.86412H14.9434V14.5148Z" fill="#FB5B21"/>
</svg>
