<svg width="25" height="21" viewBox="0 0 25 21" fill="none" xmlns="http://www.w3.org/2000/svg">
<path d="M12.5 0.285767L24.2857 10.8929H20.75V20.3215H4.24999V10.8929H0.714279L12.5 0.285767ZM16.0357 10.3036V8.53577C16.0357 7.22755 14.975 6.17862 13.6786 6.17862H8.96428V8.53577H13.6786V10.8929H11.3214V13.2501H13.6786V15.6072H8.96428V17.9643H13.6786C14.3037 17.9643 14.9033 17.716 15.3453 17.2739C15.7874 16.8319 16.0357 16.2323 16.0357 15.6072V13.8393C16.0357 13.3705 15.8495 12.9208 15.5179 12.5893C15.1864 12.2577 14.7367 12.0715 14.2679 12.0715C14.7367 12.0715 15.1864 11.8852 15.5179 11.5537C15.8495 11.2222 16.0357 10.7725 16.0357 10.3036Z" fill="#FB5B21"/>
</svg>
