<svg width="25" height="27" viewBox="0 0 25 27" fill="none" xmlns="http://www.w3.org/2000/svg">
<path d="M22.6835 10.0282C21.7998 10.0282 21.0813 10.7467 21.0813 11.6293V13.8572C21.0813 14.7409 21.7998 15.4594 22.6835 15.4594C23.5672 15.4594 24.2857 14.7409 24.2857 13.8572V11.6293C24.2857 10.7456 23.5672 10.0282 22.6835 10.0282ZM23.3805 13.8561C23.3805 14.2408 23.0682 14.5531 22.6835 14.5531C22.2988 14.5531 21.9865 14.2408 21.9865 13.8561V11.6281C21.9865 11.2446 22.2988 10.9323 22.6835 10.9323C23.0682 10.9323 23.3805 11.2446 23.3805 11.6281V13.8561Z" fill="#FB5B21"/>
<path d="M6.10133 15.0361C6.12509 15.267 6.31858 15.4424 6.55167 15.4424H18.4064C18.6372 15.4424 18.8307 15.2704 18.8556 15.0407C19.0548 13.2631 19.6216 11.8668 20.1218 10.6346C20.9862 8.50738 21.7319 6.66982 20.3763 3.89878C19.1272 1.31556 17.2941 0.928589 16.3143 0.928589C14.8795 0.928589 13.438 1.70819 12.5384 2.92569C11.6004 1.71046 10.1351 0.92972 8.70378 0.92972C7.0054 0.92972 5.55934 1.98541 4.63377 3.89765C3.27484 6.65851 4.01032 8.48928 4.8612 10.6074C5.35793 11.8442 5.92142 13.2472 6.10133 15.0361ZM5.44732 4.29367C6.2258 2.68468 7.35164 1.83492 8.70378 1.83492C10.0457 1.83492 11.4318 2.69712 12.1526 3.97912C12.2341 4.12395 12.3868 4.19071 12.5531 4.20994C12.7183 4.20768 12.87 4.11603 12.9469 3.96893C13.61 2.71297 14.9949 1.83492 16.3131 1.83492C17.2523 1.83492 18.5773 2.2615 19.5617 4.29594C20.7407 6.70603 20.098 8.289 19.2833 10.2952C18.7979 11.4889 18.2525 12.8297 18.0081 14.5383H6.95448C6.72365 12.8184 6.1828 11.4697 5.70078 10.2703C4.89854 8.27316 4.26604 6.69585 5.44732 4.29367Z" fill="#FB5B21"/>
<path d="M4.69031 19.0427C3.73419 19.0427 2.92517 19.8133 2.92517 20.7241V23.9568C2.92517 24.87 3.73306 25.6394 4.69031 25.6394H20.4555C21.4558 25.6394 22.2693 24.8847 22.2693 23.9568V20.7241C22.2693 19.7974 21.4558 19.0427 20.4555 19.0427H4.69031ZM21.3641 20.7253V23.958C21.3641 24.3868 20.9568 24.7364 20.4555 24.7364H4.69031C4.23205 24.7364 3.83037 24.3732 3.83037 23.958V20.7253C3.83037 20.3123 4.23205 19.9479 4.69031 19.9479H20.4555C20.9568 19.9479 21.3641 20.2964 21.3641 20.7253Z" fill="#FB5B21"/>
<path d="M20.4319 15.6844H4.56821C3.70148 15.6844 2.99542 16.3894 2.99542 17.2572C2.99542 18.1251 3.70148 18.83 4.56821 18.83H20.4319C21.2997 18.83 22.0046 18.1251 22.0046 17.2572C22.0046 16.3894 21.2986 15.6844 20.4319 15.6844ZM20.4319 17.9237H4.56821C4.20047 17.9237 3.90062 17.6238 3.90062 17.2561C3.90062 16.8884 4.20047 16.5885 4.56821 16.5885H20.4319C20.8007 16.5885 21.0994 16.8884 21.0994 17.2561C21.0994 17.6238 20.7996 17.9237 20.4319 17.9237Z" fill="#FB5B21"/>
<path d="M3.91871 13.8559V11.6279C3.91871 10.7454 3.2002 10.0269 2.3165 10.0269C1.4328 10.0269 0.714294 10.7454 0.714294 11.6279V13.8559C0.714294 14.7396 1.4328 15.4581 2.3165 15.4581C3.2002 15.4581 3.91871 14.7407 3.91871 13.8559ZM3.0135 13.8559C3.0135 14.2406 2.70121 14.5529 2.3165 14.5529C1.93179 14.5529 1.6195 14.2406 1.6195 13.8559V11.6279C1.6195 11.2444 1.93179 10.9321 2.3165 10.9321C2.70121 10.9321 3.0135 11.2444 3.0135 11.6279V13.8559Z" fill="#FB5B21"/>
<path d="M22.0183 25.9122H2.97964C2.72958 25.9122 2.52704 26.1148 2.52704 26.3637C2.52704 26.6126 2.72958 26.8163 2.97964 26.8163H22.0183C22.2683 26.8163 22.4709 26.6126 22.4709 26.3637C22.4709 26.1148 22.2683 25.9122 22.0183 25.9122Z" fill="#FB5B21"/>
</svg>
