<svg width="25" height="24" viewBox="0 0 25 24" fill="none" xmlns="http://www.w3.org/2000/svg">
<path d="M17.4586 4.6462C17.9217 4.6462 18.313 4.47851 18.6324 4.14315C18.9518 3.80778 19.1115 3.40855 19.1115 2.94541C19.1115 2.48227 18.9518 2.08304 18.6324 1.74768C18.3129 1.41231 17.9216 1.24463 17.4586 1.24463C16.9954 1.24463 16.6041 1.41231 16.2848 1.74768C15.9654 2.08304 15.8057 2.48227 15.8057 2.94541C15.8057 3.40855 15.9654 3.80778 16.2848 4.14315C16.6042 4.47851 16.9955 4.6462 17.4586 4.6462Z" fill="#FB5B21"/>
<path d="M18.6803 5.02943H16.2848L12.1167 0.765495C11.957 0.605478 11.7574 0.517612 11.5178 0.501993C11.2783 0.486375 11.0786 0.566192 10.919 0.74154C10.7592 0.917224 10.6714 1.12482 10.6555 1.36436C10.6395 1.60391 10.7114 1.80355 10.8711 1.96323L15.2308 6.41881V21.2228C15.2308 21.4784 15.3186 21.7019 15.4943 21.8935C15.67 22.0852 15.8856 22.181 16.1411 22.181C16.3966 22.181 16.6202 22.0852 16.8118 21.8935C17.0035 21.7019 17.0993 21.4784 17.0993 21.2228V13.174H17.8658V21.2228C17.8658 21.4784 17.9536 21.7019 18.1293 21.8935C18.305 22.0852 18.5206 22.181 18.7761 22.181C19.0316 22.181 19.2552 22.0852 19.4468 21.8935C19.6385 21.7019 19.7343 21.4784 19.7343 21.2228V6.41881L24.0461 1.96323C24.2058 1.80355 24.2857 1.60391 24.2857 1.36436C24.2857 1.12482 24.1979 0.917224 24.0222 0.74154C23.8465 0.565856 23.6389 0.486039 23.3994 0.501993C23.1598 0.517947 22.9602 0.605813 22.8005 0.765495L18.6803 5.02943Z" fill="#FB5B21"/>
<path d="M9.91288 11.5451C9.62543 11.2576 9.29006 11.1139 8.90679 11.1139H5.4094C5.02613 11.1139 4.70671 11.2576 4.45121 11.5451L0.953826 15.1383C0.794144 15.3299 0.714279 15.5455 0.714279 15.7851C0.714279 16.0246 0.802097 16.2242 0.977781 16.3839C1.15346 16.5436 1.36106 16.6235 1.6006 16.6235C1.84015 16.6235 2.03979 16.5277 2.19947 16.336L4.8824 13.5573V17.2942H1.8641C1.57665 17.2942 1.3371 17.39 1.14546 17.5817C0.953826 17.7733 0.858007 18.0128 0.858007 18.3002C0.858007 18.6197 0.953826 18.8751 1.14546 19.0668L4.59494 22.6121C4.72272 22.8357 4.92231 22.9794 5.19381 23.0432C5.46531 23.1072 5.71281 23.0592 5.9364 22.8995C6.19191 22.7718 6.35959 22.5641 6.43945 22.2767C6.51913 21.9892 6.47917 21.7178 6.31968 21.4622L4.35539 19.45H4.4033H10.0087L8.04442 21.4622C7.91664 21.7178 7.88474 21.9892 7.9486 22.2767C8.01246 22.5641 8.17219 22.7878 8.42769 22.9474C8.68319 23.0752 8.93874 23.1072 9.19424 23.0432C9.44975 22.9794 9.65738 22.8357 9.81707 22.6121L13.2186 19.0668C13.4422 18.8751 13.554 18.6356 13.554 18.3481C13.554 18.0608 13.4502 17.8132 13.2426 17.6056C13.035 17.398 12.8034 17.2942 12.5479 17.2942H9.4817V13.6052L12.1646 16.336C12.3243 16.5277 12.5159 16.6235 12.7395 16.6235C12.9631 16.6235 13.1627 16.5436 13.3384 16.3839C13.5141 16.2242 13.6019 16.0246 13.6019 15.7851C13.6019 15.5455 13.522 15.3299 13.3624 15.1383L9.91288 11.5451Z" fill="#FB5B21"/>
<path d="M7.20599 10.7786C7.66913 10.7786 8.06041 10.6109 8.37977 10.2755C8.69918 9.94016 8.85886 9.53293 8.85886 9.05384C8.85886 8.57475 8.69918 8.16752 8.37977 7.83215C8.06036 7.49678 7.66913 7.3291 7.20599 7.3291C6.74285 7.3291 6.35162 7.49678 6.03221 7.83215C5.7128 8.16752 5.55312 8.57475 5.55312 9.05384C5.55312 9.53293 5.7128 9.94016 6.03221 10.2755C6.35162 10.6109 6.74285 10.7786 7.20599 10.7786Z" fill="#FB5B21"/>
</svg>
