<svg width="25" height="23" viewBox="0 0 25 23" fill="none" xmlns="http://www.w3.org/2000/svg">
<path d="M12.4509 3.97437L12.1071 4.9074C12.1071 4.95651 12.1071 5.00561 12.1562 5.00561L14.3169 5.98776L15.7902 5.44758L16.2812 5.98776C16.2812 5.98776 15.6919 9.86722 15.9375 13.6485" stroke="#FB5B21" stroke-miterlimit="10"/>
<path d="M9.79913 14.6797C9.79913 13.2064 11.2232 11.9788 12.942 11.9788C14.6607 11.9788 16.0848 13.2064 16.0848 14.6797" stroke="#FB5B21" stroke-miterlimit="10"/>
<path d="M2.97321 12.5681C3.70981 11.9297 4.69196 11.5859 5.82142 11.5859C6.95088 11.5859 7.93303 11.9788 8.66963 12.5681C9.40624 13.2065 9.84821 14.0413 9.84821 14.9743" stroke="#FB5B21" stroke-miterlimit="10"/>
<path d="M5.33038 19.0994C6.31253 19.9342 7.68753 20.4744 9.16074 20.4744C10.634 20.4744 12.009 19.9342 12.9911 19.0994" stroke="#FB5B21" stroke-miterlimit="10"/>
<path d="M10.0938 18.2644C11.2723 18.9519 12.7455 19.5903 15.1027 19.1974C17.0179 18.8537 16.9196 17.4296 21.0446 17.0367L21.683 15.8581C22.5179 14.0903 21.4866 9.86707 21.192 8.93404C21.1429 8.78672 21.0938 8.6885 21.0446 8.54118L18.6384 3.28672C18.5402 3.09029 18.3929 2.99207 18.2455 2.89386L13.5312 0.831361C13.2857 0.733146 12.942 0.782253 12.7946 1.02779L11.4196 3.04118C11.3705 3.1394 11.3705 3.23761 11.4687 3.28672L13.8259 4.36707C13.875 4.36707 13.9241 4.36707 13.9241 4.31797L14.4152 3.1885" stroke="#FB5B21" stroke-miterlimit="10"/>
<path d="M6.85267 17.9208L4.34821 20.6217V22.7333" stroke="#FB5B21" stroke-miterlimit="10"/>
<path d="M12.5982 9.47424V10.9475" stroke="#FB5B21" stroke-miterlimit="10"/>
<path d="M10.3393 9.96545L10.9777 11.2913" stroke="#FB5B21" stroke-miterlimit="10"/>
<path d="M14.808 9.96545L14.1696 11.2913" stroke="#FB5B21" stroke-miterlimit="10"/>
</svg>
