<svg width="25" height="25" viewBox="0 0 25 25" fill="none" xmlns="http://www.w3.org/2000/svg">
<path d="M14.9554 5.625H6.60715V19.375H8.57145V14.4643H14.9554C17.4107 14.4643 19.375 12.5 19.375 10.0447C19.375 7.58935 17.4107 5.625 14.9554 5.625ZM14.9554 12.5H8.57145V7.58926H14.9554C16.3304 7.58926 17.4107 8.6696 17.4107 10.0446C17.4107 11.4196 16.3303 12.5 14.9554 12.5Z" fill="#FB5B21"/>
<path d="M21.3393 0.714233H3.66071C1.99107 0.714233 0.714279 1.99103 0.714279 3.66066V21.3392C0.714279 23.0089 1.99107 24.2857 3.66071 24.2857H21.3393C23.0089 24.2857 24.2857 23.0089 24.2857 21.3392V3.66066C24.2857 1.99103 23.0089 0.714233 21.3393 0.714233ZM22.3214 21.3392C22.3214 21.9285 21.9286 22.3214 21.3393 22.3214H3.66071C3.07142 22.3214 2.67858 21.9285 2.67858 21.3392V3.66066C2.67858 3.07138 3.07142 2.67853 3.66071 2.67853H21.3393C21.9286 2.67853 22.3214 3.07138 22.3214 3.66066V21.3392Z" fill="#FB5B21"/>
</svg>
