<svg width="25" height="25" viewBox="0 0 25 25" fill="none" xmlns="http://www.w3.org/2000/svg">
<path d="M24.2857 9.88334C24.2857 7.42842 23.3528 5.12081 21.5853 3.40235C18.0012 -0.181805 12.2075 -0.181805 8.62335 3.40235C7.54316 4.48254 6.75758 5.75909 6.36479 7.18294L6.31566 7.13381L6.11931 8.01756L6.07018 8.26305C5.67739 10.4233 6.11931 12.731 7.29768 14.5967L1.30766 19.752C0.914869 20.0957 0.718434 20.5376 0.718434 21.0777C0.669305 21.8142 1.06209 22.6489 1.65132 23.2871C2.24054 23.8764 3.02604 24.22 3.76257 24.22C3.8117 24.22 3.8117 24.22 3.86075 24.22C4.40085 24.22 4.84268 23.9745 5.18642 23.6308L10.3417 17.6408C12.2075 18.77 14.5151 19.2119 16.6754 18.8683L16.9209 18.8192C16.9209 18.8192 16.9209 18.8192 16.97 18.8192L17.8538 18.6228L17.8047 18.5737C19.2285 18.1318 20.5542 17.3462 21.5852 16.3151C23.3528 14.5968 24.2857 12.3382 24.2857 9.88334ZM10.5381 16.6589L10.1944 16.4135L4.49902 23.0417C4.30267 23.2381 4.0571 23.2872 3.86075 23.2872C3.36978 23.2872 2.82969 23.0417 2.38777 22.5998C1.94585 22.1579 1.70037 21.6179 1.70037 21.1268C1.70037 20.9305 1.7495 20.6849 1.94585 20.4886L8.57414 14.7932L8.32866 14.4495C7.2976 12.9275 6.80663 11.0126 6.95394 9.14688L15.7917 17.9846C13.9259 18.181 12.0602 17.69 10.5381 16.6589ZM17.0191 17.8373L7.15037 7.96852C7.49403 6.49554 8.23056 5.12081 9.31067 4.04062C12.502 0.849257 17.7065 0.849257 20.8979 4.04062C22.42 5.56265 23.3037 7.62477 23.3037 9.83421C23.3037 12.0436 22.469 14.0567 20.8979 15.6278C19.8177 16.7571 18.4921 17.4936 17.0191 17.8373Z" fill="#FB5B21"/>
<path d="M16.0864 5.26819C14.9571 5.26819 14.0242 6.20107 14.0242 7.33031C14.0242 8.45955 14.9571 9.39244 16.0864 9.39244C17.2156 9.39244 18.1485 8.45955 18.1485 7.33031C18.1485 6.20107 17.2156 5.26819 16.0864 5.26819ZM16.0864 8.45955C15.4972 8.45955 15.0062 7.96859 15.0062 7.37936C15.0062 6.79014 15.4971 6.29917 16.0864 6.29917C16.6756 6.29917 17.1665 6.79014 17.1665 7.37936C17.1665 7.96859 16.6755 8.45955 16.0864 8.45955Z" fill="#FB5B21"/>
</svg>
