<svg width="25" height="25" viewBox="0 0 25 25" fill="none" xmlns="http://www.w3.org/2000/svg">
<path d="M23.6548 2.2537H21.5853V1.34516C21.5853 0.991841 21.3077 0.714233 20.9544 0.714233H4.04557C3.69225 0.714233 3.41465 0.991841 3.41465 1.34516V2.27893H1.34521C0.991887 2.27893 0.714279 2.55654 0.714279 2.90986V6.74589C0.714279 7.09921 0.991887 7.37682 1.34521 7.37682H3.41465V12.4242V13.6861V20.0458C3.41465 20.3992 3.69225 20.6768 4.04557 20.6768H5.05506V22.0143C5.05506 23.0995 5.86264 24.0333 6.94784 24.109C8.13398 24.1847 9.09299 23.2509 9.09299 22.09V20.6768H15.907V22.0143C15.907 23.0995 16.7146 24.0333 17.7998 24.109C18.9859 24.1847 19.9449 23.2509 19.9449 22.09V20.6768H20.9544C21.3077 20.6768 21.5853 20.3992 21.5853 20.0458V13.6609V12.399V7.35158H23.6548C24.0081 7.35158 24.2857 7.07398 24.2857 6.72066V2.88462C24.2857 2.55654 23.9829 2.2537 23.6548 2.2537ZM4.6765 1.97609H20.3235V5.1812H4.6765V1.97609ZM3.08656 6.08973H1.97613V3.51555H3.06133V6.08973H3.08656ZM4.6765 6.41781H11.8691V12.399H4.6765V6.41781ZM7.83114 22.0648C7.83114 22.4938 7.50305 22.8219 7.07402 22.8219C6.64499 22.8219 6.31691 22.4938 6.31691 22.0648V20.6515H7.83114V22.0648ZM18.6831 22.0648C18.6831 22.4938 18.355 22.8219 17.926 22.8219C17.4969 22.8219 17.1689 22.4938 17.1689 22.0648V20.6515H18.6831V22.0648ZM20.3235 19.3897H4.6765V13.6609H20.3235V19.3897ZM13.1309 12.399V6.41781H20.3235V12.399H13.1309ZM23.0239 6.08973H21.9387V3.51555H23.0239V6.08973Z" fill="#FB5B21"/>
<path d="M7.52829 18.8345C8.79015 18.8345 9.79963 17.8251 9.79963 16.5632C9.79963 15.3014 8.79015 14.2919 7.52829 14.2919C6.26644 14.2919 5.25696 15.3014 5.25696 16.5632C5.25696 17.8251 6.26644 18.8345 7.52829 18.8345ZM7.52829 15.5537C8.08351 15.5537 8.53778 16.008 8.53778 16.5632C8.53778 17.1184 8.08351 17.5727 7.52829 17.5727C6.97308 17.5727 6.51881 17.1184 6.51881 16.5632C6.51881 16.008 6.94784 15.5537 7.52829 15.5537Z" fill="#FB5B21"/>
<path d="M17.6231 18.8345C18.885 18.8345 19.8945 17.8251 19.8945 16.5632C19.8945 15.3014 18.885 14.2919 17.6231 14.2919C16.3613 14.2919 15.3518 15.3014 15.3518 16.5632C15.3518 17.8251 16.3613 18.8345 17.6231 18.8345ZM17.6231 15.5537C18.1783 15.5537 18.6326 16.008 18.6326 16.5632C18.6326 17.1184 18.1783 17.5727 17.6231 17.5727C17.0679 17.5727 16.6136 17.1184 16.6136 16.5632C16.6136 16.008 17.0427 15.5537 17.6231 15.5537Z" fill="#FB5B21"/>
<path d="M13.4085 15.9323H11.7176C11.3643 15.9323 11.0867 16.2099 11.0867 16.5632C11.0867 16.9165 11.3643 17.1941 11.7176 17.1941H13.4085C13.7618 17.1941 14.0394 16.9165 14.0394 16.5632C14.0394 16.2351 13.7618 15.9323 13.4085 15.9323Z" fill="#FB5B21"/>
<path d="M9.67343 4.29792H15.0742C15.4527 4.29792 15.7808 3.96984 15.7808 3.59128C15.7808 3.21273 15.4527 2.88464 15.0742 2.88464H9.67343C9.29488 2.88464 8.9668 3.21273 8.9668 3.59128C8.9668 3.99507 9.29488 4.29792 9.67343 4.29792Z" fill="#FB5B21"/>
</svg>
