<svg width="25" height="25" viewBox="0 0 25 25" fill="none" xmlns="http://www.w3.org/2000/svg">
<path d="M24.2605 8.82217C24.1315 7.14613 23.5188 5.54354 22.4968 4.20891L22.3274 3.98898C22.1884 3.81061 21.9845 3.69447 21.7602 3.66592V2.81883H22.6021C22.8252 2.81852 23.0392 2.72973 23.197 2.57192C23.3548 2.41411 23.4436 2.20016 23.4439 1.97699V1.55607C23.4436 1.3329 23.3548 1.11895 23.197 0.96114C23.0392 0.803331 22.8252 0.71454 22.6021 0.714233H9.13266C8.90949 0.71454 8.69554 0.803331 8.53773 0.96114C8.37992 1.11895 8.29113 1.3329 8.29083 1.55607V1.97699C8.29113 2.20016 8.37992 2.41411 8.53773 2.57192C8.69554 2.72973 8.90949 2.81852 9.13266 2.81883H9.9745V3.66592C9.75019 3.69447 9.54629 3.81061 9.40731 3.98898L9.23789 4.20891C9.06216 4.43831 8.89695 4.67823 8.74542 4.92342H8.39605C8.35837 4.9235 8.32141 4.9337 8.28901 4.95295C8.25662 4.9722 8.22999 4.9998 8.2119 5.03286L7.11436 7.02906C7.07858 7.02906 7.04175 7.02801 7.00597 7.02801H4.52466C3.98898 7.03398 3.46013 7.14903 2.97038 7.36614C2.48063 7.58324 2.04024 7.89785 1.67609 8.29076H1.34567C1.17822 8.29076 1.01763 8.35728 0.899221 8.47569C0.780814 8.5941 0.714294 8.75469 0.714294 8.92214V9.76398C0.714904 9.93124 0.78162 10.0915 0.899895 10.2098C1.01817 10.328 1.17841 10.3947 1.34567 10.3954H10.185V10.8163H1.55613C1.5271 10.8162 1.49836 10.8222 1.47174 10.8338C1.44512 10.8454 1.42119 10.8623 1.40144 10.8836C1.38162 10.905 1.3665 10.9302 1.35708 10.9578C1.34765 10.9853 1.34412 11.0146 1.34672 11.0436L1.36251 11.2372L1.66873 15.0223C1.66886 15.0308 1.66956 15.0392 1.67083 15.0476L2.38534 23.8921C2.39257 23.9988 2.44005 24.0988 2.51819 24.1719C2.59632 24.2449 2.69929 24.2856 2.80626 24.2857H8.72437C8.83079 24.2859 8.93332 24.2457 9.01126 24.1732C9.08919 24.1008 9.13672 24.0014 9.14424 23.8953L9.18633 23.3702C9.37491 23.4195 9.5691 23.4443 9.76404 23.4438H21.9707C22.5844 23.4431 23.1729 23.199 23.6069 22.765C24.0409 22.331 24.285 21.7425 24.2857 21.1288V8.92214C24.2856 8.88726 24.2769 8.85293 24.2605 8.82217ZM13.3418 2.39791H12.5V1.13515H13.3418V2.39791ZM12.2895 2.81883H21.3393V3.66066H10.3954V2.81883H12.2895ZM3.45026 19.0242H4.60779C4.66361 19.0242 4.71714 19.0464 4.75661 19.0858C4.79608 19.1253 4.81825 19.1788 4.81825 19.2346C4.81825 19.2905 4.79608 19.344 4.75661 19.3835C4.71714 19.4229 4.66361 19.4451 4.60779 19.4451H3.45026C3.39445 19.4451 3.34092 19.4229 3.30145 19.3835C3.26198 19.344 3.2398 19.2905 3.2398 19.2346C3.2398 19.1788 3.26198 19.1253 3.30145 19.0858C3.34092 19.0464 3.39445 19.0242 3.45026 19.0242ZM3.2398 17.551C3.23997 17.4952 3.2622 17.4418 3.30163 17.4023C3.34106 17.3629 3.3945 17.3407 3.45026 17.3405H3.97641C4.03223 17.3405 4.08576 17.3627 4.12523 17.4022C4.1647 17.4416 4.18687 17.4952 4.18687 17.551C4.18687 17.6068 4.1647 17.6603 4.12523 17.6998C4.08576 17.7393 4.03223 17.7614 3.97641 17.7614H3.45026C3.3945 17.7613 3.34106 17.739 3.30163 17.6996C3.2622 17.6602 3.23997 17.6067 3.2398 17.551ZM3.45026 20.7079H3.97641C4.03223 20.7079 4.08576 20.73 4.12523 20.7695C4.1647 20.809 4.18687 20.8625 4.18687 20.9183C4.18687 20.9741 4.1647 21.0277 4.12523 21.0671C4.08576 21.1066 4.03223 21.1288 3.97641 21.1288H3.45026C3.39445 21.1288 3.34092 21.1066 3.30145 21.0671C3.26198 21.0277 3.2398 20.9741 3.2398 20.9183C3.2398 20.8625 3.26198 20.809 3.30145 20.7695C3.34092 20.73 3.39445 20.7079 3.45026 20.7079ZM3.45026 22.3915H4.60779C4.66361 22.3915 4.71714 22.4137 4.75661 22.4532C4.79608 22.4926 4.81825 22.5462 4.81825 22.602C4.81825 22.6578 4.79608 22.7113 4.75661 22.7508C4.71714 22.7903 4.66361 22.8124 4.60779 22.8124H3.45026C3.39445 22.8124 3.34092 22.7903 3.30145 22.7508C3.26198 22.7113 3.2398 22.6578 3.2398 22.602C3.2398 22.5462 3.26198 22.4926 3.30145 22.4532C3.34092 22.4137 3.39445 22.3915 3.45026 22.3915ZM4.60779 16.0778H3.45026C3.39445 16.0778 3.34092 16.0556 3.30145 16.0161C3.26198 15.9766 3.2398 15.9231 3.2398 15.8673C3.2398 15.8115 3.26198 15.7579 3.30145 15.7185C3.34092 15.679 3.39445 15.6568 3.45026 15.6568H4.60779C4.66361 15.6568 4.71714 15.679 4.75661 15.7185C4.79608 15.7579 4.81825 15.8115 4.81825 15.8673C4.81825 15.9231 4.79608 15.9766 4.75661 16.0161C4.71714 16.0556 4.66361 16.0778 4.60779 16.0778ZM9.74615 11.2372L9.45677 14.8118H2.07386L1.78448 11.2372H9.74615ZM23.8648 21.1288C23.8642 21.631 23.6645 22.1124 23.3094 22.4675C22.9543 22.8226 22.4728 23.0223 21.9707 23.0229H9.76404C9.58016 23.0233 9.39722 22.9967 9.22105 22.944L9.8598 15.0444L10.1681 11.2372H10.3954C10.4512 11.237 10.5046 11.2148 10.5441 11.1754C10.5835 11.1359 10.6057 11.0825 10.6059 11.0267V10.2333C10.6722 10.1744 10.7253 10.1022 10.7616 10.0213C10.7978 9.94035 10.8165 9.85265 10.8163 9.76398V8.92214C10.8163 8.75469 10.7498 8.5941 10.6314 8.47569C10.513 8.35728 10.3524 8.29076 10.185 8.29076H9.85454C9.75945 8.18934 9.65899 8.09309 9.55358 8.00244V5.13388C9.55341 5.07811 9.53119 5.02468 9.49175 4.98524C9.45232 4.94581 9.39889 4.92358 9.34312 4.92342H9.24526C9.34838 4.76662 9.45782 4.61404 9.57147 4.46567L9.74089 4.24574C9.78038 4.19485 9.83094 4.15362 9.88874 4.12518C9.94654 4.09673 10.0101 4.08183 10.0745 4.08158H21.6602C21.7247 4.08183 21.7882 4.09673 21.846 4.12518C21.9038 4.15362 21.9543 4.19485 21.9938 4.24574L22.1632 4.46567C23.1063 5.69636 23.6833 7.16799 23.828 8.71168H13.5523C13.4965 8.71185 13.4431 8.73408 13.4037 8.77351C13.3642 8.81294 13.342 8.86638 13.3418 8.92214V17.7614C13.342 17.8172 13.3642 17.8706 13.4037 17.9101C13.4431 17.9495 13.4965 17.9717 13.5523 17.9719H23.8648V21.1288Z" fill="#FB5B21"/>
<path d="M3.45033 12.7105H4.60785C4.66367 12.7105 4.7172 12.6883 4.75667 12.6488C4.79614 12.6094 4.81831 12.5558 4.81831 12.5C4.81831 12.4442 4.79614 12.3907 4.75667 12.3512C4.7172 12.3117 4.66367 12.2896 4.60785 12.2896H3.45033C3.39451 12.2896 3.34098 12.3117 3.30151 12.3512C3.26204 12.3907 3.23987 12.4442 3.23987 12.5C3.23987 12.5558 3.26204 12.6094 3.30151 12.6488C3.34098 12.6883 3.39451 12.7105 3.45033 12.7105Z" fill="#FB5B21"/>
<path d="M3.45033 14.3942H3.97648C4.03229 14.3942 4.08582 14.372 4.12529 14.3325C4.16476 14.2931 4.18693 14.2395 4.18693 14.1837C4.18693 14.1279 4.16476 14.0744 4.12529 14.0349C4.08582 13.9954 4.03229 13.9733 3.97648 13.9733H3.45033C3.39451 13.9733 3.34098 13.9954 3.30151 14.0349C3.26204 14.0744 3.23987 14.1279 3.23987 14.1837C3.23987 14.2395 3.26204 14.2931 3.30151 14.3325C3.34098 14.372 3.39451 14.3942 3.45033 14.3942Z" fill="#FB5B21"/>
<path d="M1.34566 10.8164H1.55612C1.52709 10.8163 1.49835 10.8223 1.47173 10.8339C1.44511 10.8455 1.42118 10.8624 1.40143 10.8837C1.38161 10.9051 1.36649 10.9303 1.35707 10.9579C1.34764 10.9854 1.34411 11.0147 1.34671 11.0437L1.3625 11.2373H1.1352C1.07944 11.2371 1.026 11.2149 0.98657 11.1755C0.947137 11.136 0.92491 11.0826 0.924744 11.0268V10.2334C1.03994 10.338 1.19006 10.3958 1.34566 10.3955V10.8164Z" fill="#FB5B21"/>
</svg>
