<svg width="25" height="25" viewBox="0 0 25 25" fill="none" xmlns="http://www.w3.org/2000/svg">
<path d="M3.41101 15.6462C4.14347 15.6462 4.76772 15.3798 5.28374 14.8471C5.79977 14.3144 6.0578 13.6652 6.0578 12.8995C6.0578 12.1338 5.79977 11.4846 5.28374 10.9519C4.76772 10.4192 4.14347 10.1528 3.41101 10.1528C2.67855 10.1528 2.04602 10.4192 1.51331 10.9519C0.980606 11.4846 0.714279 12.1338 0.714279 12.8995C0.714279 13.6652 0.980606 14.3144 1.51331 14.8471C2.04602 15.3798 2.67855 15.6462 3.41101 15.6462Z" fill="#FB5B21"/>
<path d="M18.3429 20.3405C18.4761 20.2406 18.6092 20.2572 18.7424 20.3904L19.2418 21.1395C19.3417 21.2726 19.3084 21.3892 19.1419 21.4891L15.5463 24.1858C15.4129 24.3189 15.2797 24.3023 15.1468 24.1359L14.6474 23.4367C14.5475 23.3035 14.5808 23.1703 14.7473 23.0372L18.3429 20.3405Z" fill="#FB5B21"/>
<path d="M14.2479 16.8446L12.7997 14.2977L12.0506 14.8471L13.4988 17.4439L14.2479 16.8446Z" fill="#FB5B21"/>
<path d="M10.9019 10.802L5.30872 0.714233L4.25999 0.764173L10.1529 11.4013L10.9019 10.802Z" fill="#FB5B21"/>
<path d="M16.1456 16.1455C16.6783 15.746 17.161 15.5462 17.5938 15.5462H22.7376C23.2037 15.5462 23.5782 15.7543 23.8612 16.1705C24.1442 16.5866 24.2857 17.0611 24.2857 17.5938C24.2857 18.6259 23.7697 19.1419 22.7376 19.1419H18.1432L12.5999 23.4866C11.934 23.986 11.368 24.1941 10.9019 24.1109C10.4358 24.0276 10.0779 23.8944 9.82823 23.7114C9.57853 23.5282 9.45368 23.4034 9.45368 23.3368L5.10895 18.8922C4.74274 18.4261 4.59292 17.8435 4.65949 17.1443C4.72606 16.4452 4.97576 15.9125 5.40859 15.5462L11.4013 11.1516C11.701 10.885 12.0505 10.7685 12.4501 10.802C12.8496 10.8354 13.1742 11.0019 13.4239 11.3014C13.6736 11.601 13.7818 11.9506 13.7485 12.3501C13.7152 12.7496 13.5487 13.0826 13.2491 13.3489L9.40374 16.2454L12.1504 19.042L16.1456 16.1455Z" fill="#FB5B21"/>
</svg>
