<svg width="25" height="24" viewBox="0 0 25 24" fill="none" xmlns="http://www.w3.org/2000/svg">
<path d="M7.06679 9.20768C8.92059 11.8369 7.98854 14.3551 7.23916 16.3788C6.61206 18.0735 6.26635 19.1524 7.02309 19.9582L6.3076 20.6305C5.09514 19.3404 5.68934 17.7366 6.31791 16.038C7.05648 14.0433 7.8201 11.9808 6.26389 9.77339L7.06679 9.20768ZM17.1401 20.6305L17.8556 19.9582C17.0979 19.1524 17.4441 18.0735 18.0712 16.3788C18.8201 14.3556 19.7526 11.8374 17.8984 9.20768L17.0955 9.77339C18.6522 11.9808 17.8885 14.0428 17.15 16.038C16.5214 17.7366 15.9277 19.3404 17.1401 20.6305ZM11.6951 9.77388C13.2499 11.9803 12.4872 14.0433 11.7487 16.0375C11.1201 17.7361 10.5259 19.3409 11.7384 20.631L12.4538 19.9587C11.6966 19.1529 12.0423 18.073 12.6694 16.3788C13.4178 14.3556 14.3504 11.8379 12.4971 9.20817L11.6951 9.77388ZM24.2857 9.24205V23.2096H0.714294V9.24205L12.5 0.5L24.2857 9.24205ZM23.3036 9.73607L12.5 1.72277L1.69644 9.73607V22.2275H23.3036V9.73607Z" fill="#FB5B21"/>
</svg>
