<svg width="25" height="25" viewBox="0 0 25 25" fill="none" xmlns="http://www.w3.org/2000/svg">
<path d="M22.4442 6.60721C23.46 6.60721 24.2857 5.78148 24.2857 4.76569V2.55587C24.2857 1.54009 23.46 0.714355 22.4442 0.714355H20.2344C19.2186 0.714355 18.3929 1.54009 18.3929 2.55587V2.92418H6.60715V2.55587C6.60715 1.54009 5.78141 0.714355 4.76563 0.714355H2.55581C1.54077 0.714355 0.714294 1.54009 0.714294 2.55587V4.76569C0.714294 5.78148 1.54077 6.60721 2.55581 6.60721H2.92412V18.3929H2.55581C1.54077 18.3929 0.714294 19.2187 0.714294 20.2344V22.4443C0.714294 23.46 1.54077 24.2858 2.55581 24.2858H4.76563C5.78141 24.2858 6.60715 23.46 6.60715 22.4443V22.076H18.3929V22.4443C18.3929 23.46 19.2186 24.2858 20.2344 24.2858H22.4442C23.46 24.2858 24.2857 23.46 24.2857 22.4443V20.2344C24.2857 19.2187 23.46 18.3929 22.4442 18.3929H22.0759V6.60721H22.4442ZM2.55581 5.134C2.35251 5.134 2.18751 4.96826 2.18751 4.76569V2.55587C2.18751 2.35331 2.35251 2.18757 2.55581 2.18757H4.76563C4.9682 2.18757 5.13394 2.35331 5.13394 2.55587V4.76569C5.13394 4.96826 4.9682 5.134 4.76563 5.134H2.55581ZM5.13394 22.4443C5.13394 22.6468 4.9682 22.8126 4.76563 22.8126H2.55581C2.35251 22.8126 2.18751 22.6468 2.18751 22.4443V20.2344C2.18751 20.0319 2.35251 19.8661 2.55581 19.8661H4.76563C4.9682 19.8661 5.13394 20.0319 5.13394 20.2344V22.4443ZM18.3929 20.2344V20.6027H6.60715V20.2344C6.60715 19.2187 5.78141 18.3929 4.76563 18.3929H4.39733V6.60721H4.76563C5.78141 6.60721 6.60715 5.78148 6.60715 4.76569V4.39739H18.3929V4.76569C18.3929 5.78148 19.2186 6.60721 20.2344 6.60721H20.6027V18.3929H20.2344C19.2186 18.3929 18.3929 19.2187 18.3929 20.2344ZM22.4442 19.8661C22.6468 19.8661 22.8125 20.0319 22.8125 20.2344V22.4443C22.8125 22.6468 22.6468 22.8126 22.4442 22.8126H20.2344C20.0318 22.8126 19.8661 22.6468 19.8661 22.4443V20.2344C19.8661 20.0319 20.0318 19.8661 20.2344 19.8661H22.4442ZM20.2344 5.134C20.0318 5.134 19.8661 4.96826 19.8661 4.76569V2.55587C19.8661 2.35331 20.0318 2.18757 20.2344 2.18757H22.4442C22.6468 2.18757 22.8125 2.35331 22.8125 2.55587V4.76569C22.8125 4.96826 22.6468 5.134 22.4442 5.134H20.2344Z" fill="#FB5B21"/>
</svg>
