<svg width="20" height="20" viewBox="0 0 20 20" fill="none" xmlns="http://www.w3.org/2000/svg">
<path d="M9.375 17.5H10.625V16.25H9.375V17.5ZM10 2.5C9.655 2.5 9.375 2.78 9.375 3.125V9.39H4.375C4.03 9.39 3.75 9.67 3.75 10.015C3.75 10.36 4.03 10.64 4.375 10.64H10C10.345 10.64 10.625 10.36 10.625 10.015V3.125C10.625 2.78 10.345 2.5 10 2.5ZM4.20814 14.27L5.07314 15.1369L5.93814 14.27L5.07314 13.4031L4.20814 14.27ZM6.0581 5.20186L5.17373 4.31814L4.28997 5.20186L5.17373 6.08562L6.0581 5.20186ZM13.7975 5.17062L14.6625 6.03748L15.5275 5.17062L14.6625 4.30376L13.7975 5.17062ZM13.6144 14.2362L14.4981 15.12L15.3819 14.2362L14.4981 13.3525L13.6144 14.2362ZM16.25 9.375V10.625H17.5V9.375H16.25ZM10 0C4.47686 0 0 4.47752 0 10C0 15.5231 4.47686 20 10 20C15.5231 20 20 15.5225 20 10C20 4.47752 15.5231 0 10 0ZM10 18.75C5.16748 18.75 1.25 14.8325 1.25 10C1.25 5.16748 5.16748 1.25 10 1.25C14.8325 1.25 18.75 5.16748 18.75 10C18.75 14.8325 14.8325 18.75 10 18.75Z" fill="#FB5B21"/>
</svg>
