<svg width="20" height="20" viewBox="0 0 20 20" fill="none" xmlns="http://www.w3.org/2000/svg">
<path d="M12.989 9.99964L19.38 3.60869C20.2057 2.78296 20.2057 1.44502 19.38 0.619294C18.5542 -0.206431 17.2163 -0.206431 16.3906 0.619294L9.99964 7.01097L3.60869 0.620013C2.78297 -0.205713 1.44502 -0.205713 0.619294 0.620013C-0.206431 1.44574 -0.206431 2.78368 0.619294 3.60941L7.01025 10.0004L0.619294 16.3913C-0.206431 17.217 -0.206431 18.555 0.619294 19.3807C1.44502 20.2064 2.78297 20.2064 3.60869 19.3807L9.99964 12.9898L16.3906 19.3807C17.2163 20.2064 18.5543 20.2064 19.38 19.3807C20.2057 18.555 20.2057 17.217 19.38 16.3913L12.989 9.99964Z" fill="white"/>
</svg>
