<svg width="10" height="12" viewBox="0 0 10 12" fill="none" xmlns="http://www.w3.org/2000/svg">
<path d="M8.40668 12H3.59172C3.36719 12 3.19255 11.8254 3.19255 11.6008C3.19255 10.9771 2.89317 10.6279 2.44411 10.079C2.19463 9.77962 1.9202 9.43035 1.64577 9.00624C0.897333 7.78378 0.223735 6.38669 0.0740472 5.83784C-0.0756409 5.28898 0.0241496 4.96466 0.173838 4.76507C0.348474 4.51559 0.647851 4.39085 0.997123 4.39085C1.47114 4.39085 1.9701 4.79002 2.39421 5.31393V1.1975C2.39421 0.523905 2.94307 0 3.59172 0C4.24037 0 4.78922 0.548853 4.78922 1.1975V2.86902C4.91396 2.81913 5.0387 2.79418 5.18839 2.79418C5.61251 2.79418 5.98673 3.01871 6.21126 3.34303C6.3859 3.24324 6.58548 3.19334 6.81001 3.19334C7.35887 3.19334 7.83288 3.56756 7.95762 4.06652C8.08236 4.01663 8.23205 3.99168 8.40668 3.99168C9.08028 3.99168 9.60419 4.54054 9.60419 5.18919V6.38669C9.60419 7.40956 9.40461 8.25779 9.20502 9.05613C9.00544 9.87941 8.80585 10.6279 8.80585 11.5759C8.80585 11.8004 8.63122 12 8.40668 12ZM3.99089 11.2017H8.03246C8.08236 10.3285 8.257 9.60499 8.43163 8.8815C8.63122 8.08316 8.80585 7.30977 8.80585 6.38669V5.11434C8.80585 4.88981 8.63122 4.71517 8.40668 4.71517C8.18215 4.71517 8.00752 4.88981 8.00752 5.11434V5.58836C8.00752 5.81289 7.83288 5.98752 7.60835 5.98752C7.38382 5.98752 7.20918 5.81289 7.20918 5.58836V4.316C7.20918 4.09147 7.03455 3.91684 6.81001 3.91684C6.58548 3.91684 6.41084 4.09147 6.41084 4.316V5.18919C6.41084 5.41372 6.23621 5.58836 6.01168 5.58836C5.78715 5.58836 5.61251 5.41372 5.61251 5.18919V3.91684C5.61251 3.69231 5.43787 3.51767 5.21334 3.51767C4.98881 3.51767 4.81417 3.69231 4.81417 3.91684V4.79002C4.81417 5.01456 4.63953 5.18919 4.415 5.18919C4.19047 5.18919 4.01584 5.01456 4.01584 4.79002V1.09771C4.01584 0.873179 3.8412 0.698542 3.61667 0.698542C3.39213 0.698542 3.2175 0.873179 3.2175 1.09771V7.18503C3.2175 7.40956 3.04286 7.5842 2.81833 7.5842C2.5938 7.5842 2.41916 7.40956 2.41916 7.18503V6.86071C2.06989 5.93763 1.27155 5.13929 1.02207 5.13929C0.922281 5.13929 0.872385 5.16424 0.847437 5.23908C0.822489 5.28898 0.797541 5.41372 0.847437 5.58836C0.972178 6.01247 1.59588 7.30977 2.36926 8.58212C2.61874 8.98129 2.86823 9.28066 3.11771 9.58004C3.51687 10.079 3.86615 10.5281 3.99089 11.2017Z" fill="black"/>
</svg>
