<svg width="193" height="93" viewBox="0 0 193 93" fill="none" xmlns="http://www.w3.org/2000/svg">
<path fill-rule="evenodd" clip-rule="evenodd" d="M18.7148 62.4387C14.0704 56.5567 6.09619 52.3011 7.52846 45.2577C1.09894 59.4414 29.7937 66.3005 23.088 92.3099C28.1876 77.4512 24.1264 69.2826 18.7148 62.4387Z" fill="url(#paint0_radial)"/>
<path fill-rule="evenodd" clip-rule="evenodd" d="M16.2701 59.706C13.7178 57.0004 11.5387 53.6556 12.6897 51.599C10.7717 49.5736 8.97621 47.4763 7.52878 45.2566C6.32659 51.1644 11.7486 55.1133 16.2701 59.706Z" fill="url(#paint1_radial)"/>
<path fill-rule="evenodd" clip-rule="evenodd" d="M7.06843 47.9265C6.76675 58.2895 27.4412 65.9619 24.4336 86.0227C25.1804 82.2016 25.3441 78.2788 24.4952 74.4478C23.4925 69.9312 21.2676 66.2432 18.4338 62.6579C16.0605 59.6501 13.007 57.2716 10.475 54.4073C8.83816 52.5558 7.38563 50.4329 7.06843 47.9265Z" fill="url(#paint2_linear)"/>
<path fill-rule="evenodd" clip-rule="evenodd" d="M26.2647 85.2458C46.1003 56.6637 2.59278 47.0424 5.65147 27.0021C2.14254 37.631 9.3495 45.2216 16.4543 52.2854C25.9679 61.7479 35.1954 70.5557 26.2647 85.2458Z" fill="url(#paint3_radial)"/>
<path fill-rule="evenodd" clip-rule="evenodd" d="M15.5129 46.1521C11.9019 42.1522 10.5617 38.0654 12.0552 34.4134C9.6411 32.0144 7.4161 29.5696 5.65143 27.0018C4.54147 34.2906 9.59001 40.2035 15.5129 46.1521Z" fill="url(#paint4_radial)"/>
<path fill-rule="evenodd" clip-rule="evenodd" d="M26.2648 85.2454C32.5817 74.8568 29.8146 67.4097 24.2854 60.5914C26.7813 63.9826 27.0831 67.031 25.119 69.7215C26.7763 73.9261 27.4411 78.9284 26.2648 85.2454Z" fill="url(#paint5_radial)"/>
<path fill-rule="evenodd" clip-rule="evenodd" d="M5.22162 30.4902C4.39818 46.6892 36.4791 58.2592 29.7377 78.0951C31.2466 74.1154 31.6609 69.8905 30.2032 65.4663C28.3156 59.7117 23.6917 54.8069 19.4871 50.6024C16.5411 47.651 13.4466 44.766 10.7611 41.5743C8.08613 38.398 5.67702 34.71 5.22162 30.4902Z" fill="url(#paint6_linear)"/>
<path fill-rule="evenodd" clip-rule="evenodd" d="M47.6197 53.6967C42.5405 25.2831 -7.1869 24.7102 4.3217 0C-14.7212 28.0401 35.6456 35.605 30.4846 62.6631C32.7351 53.9931 32.1266 46.8835 29.3695 41.5179C36.1418 42.1317 42.2437 46.106 47.6197 53.6967Z" fill="url(#paint7_radial)"/>
<path fill-rule="evenodd" clip-rule="evenodd" d="M47.6198 53.6967C43.4716 43.7074 34.6944 38.9607 25.912 36.2702C27.2266 37.8967 28.403 39.6308 29.3697 41.5181C36.142 42.1319 42.244 46.1062 47.6198 53.6967Z" fill="url(#paint8_radial)"/>
<path fill-rule="evenodd" clip-rule="evenodd" d="M22.2547 41.1293C25.7073 45.3594 26.4232 49.308 25.2059 53.0675C27.61 56.0289 29.5435 59.18 30.4846 62.6631C32.1573 53.8908 27.9936 47.165 22.2547 41.1293Z" fill="url(#paint9_radial)"/>
<path fill-rule="evenodd" clip-rule="evenodd" d="M2.71551 3.36087C-6.8649 25.0073 40.259 32.1938 46.4534 50.5001C42.6581 38.8176 30.6377 32.1989 20.6177 26.3831C14.49 22.8232 5.35468 17.8156 2.92521 10.9463C2.02497 8.40419 2.0812 5.84159 2.71551 3.36087Z" fill="url(#paint10_linear)"/>
<path fill-rule="evenodd" clip-rule="evenodd" d="M24.8991 35.5849C20.9761 30.6593 13.9328 25.7029 8.90484 21.5394C2.80785 16.4908 -0.562957 10.7724 2.71586 3.36087C0.613642 7.39142 -0.327741 11.6522 0.920369 16.1278C2.51107 21.8565 7.3704 26.7259 11.6464 30.7002C19.4313 37.9429 30.362 46.1115 31.1702 57.4156C32.4284 48.1779 30.495 42.5208 24.8991 35.5849Z" fill="url(#paint11_linear)"/>
<path fill-rule="evenodd" clip-rule="evenodd" d="M19.513 21.6924C22.3825 21.8612 24.9091 18.6848 25.1445 14.5979C25.3848 10.5162 23.252 7.06367 20.3825 6.89484C17.5079 6.72602 14.9861 9.90247 14.7457 13.9892C14.5054 18.0761 16.6383 21.5235 19.513 21.6924Z" fill="url(#paint12_radial)"/>
<path fill-rule="evenodd" clip-rule="evenodd" d="M20.0808 11.9633C22.3057 12.0962 23.8403 16.8123 24.0295 13.6461C24.2136 10.48 22.5616 7.81 20.3364 7.67696C18.1115 7.54909 16.1526 10.0094 15.9684 13.1756C15.7842 16.3417 17.8556 11.8355 20.0808 11.9633Z" fill="url(#paint13_linear)"/>
<path d="M66.5211 32.9775C66.6172 34.0206 66.924 34.7714 67.4419 35.2301C67.9599 35.6813 68.7107 35.9069 69.6945 35.9069C70.782 35.9069 71.5883 35.5481 72.1133 34.8306C72.6388 34.1057 72.9418 33.0367 73.0232 31.6238H67.9191V28.9275H73.0123C72.9233 27.485 72.5981 26.4161 72.0356 25.7207C71.4808 25.018 70.6859 24.6666 69.65 24.6666C68.644 24.6666 67.8893 24.907 67.3865 25.3878C66.8833 25.8613 66.5912 26.6269 66.5097 27.6847H63.181C63.3439 25.9167 63.9873 24.5223 65.1117 23.5015C66.2437 22.4807 67.7563 21.9702 69.65 21.9702C70.9965 21.9702 72.1762 22.2883 73.1899 22.9245C74.2106 23.5533 74.9946 24.4595 75.5419 25.6431C76.0896 26.8192 76.3633 28.1915 76.3633 29.7597V30.8138C76.3633 33.1958 75.7677 35.0858 74.5766 36.4839C73.393 37.8746 71.7658 38.57 69.6945 38.57C67.7861 38.57 66.2546 38.0669 65.1008 37.0609C63.9541 36.0475 63.3179 34.6863 63.1924 32.9775H66.5211ZM78.7158 38.3481V22.1922H84.3747C86.3347 22.1922 87.8218 22.5694 88.8354 23.3239C89.8486 24.0711 90.3556 25.1696 90.3556 26.6195C90.3556 27.411 90.152 28.1101 89.7449 28.7166C89.3382 29.3159 88.7724 29.756 88.0476 30.0371C88.8761 30.2442 89.5271 30.6622 90.0005 31.291C90.4811 31.9197 90.7216 32.6891 90.7216 33.599C90.7216 35.1524 90.2259 36.3286 89.2345 37.1275C88.2436 37.9264 86.8304 38.3333 84.9959 38.3481H78.7158ZM82.0445 31.3131V35.6739H84.896C85.6804 35.6739 86.2907 35.4889 86.7272 35.1191C87.1708 34.7418 87.3928 34.224 87.3928 33.5656C87.3928 32.0861 86.6273 31.3353 85.0958 31.3131H82.0445ZM82.0445 28.9608H84.5078C86.187 28.9312 87.0264 28.2617 87.0264 26.9524C87.0264 26.22 86.8119 25.6948 86.383 25.3768C85.9612 25.0513 85.2918 24.8885 84.3747 24.8885H82.0445V28.9608ZM106.5 30.6363C106.5 32.2267 106.219 33.6211 105.657 34.8195C105.095 36.0179 104.288 36.9425 103.238 37.5935C102.195 38.2445 100.996 38.57 99.6429 38.57C98.3041 38.57 97.1091 38.2482 96.0586 37.6046C95.0085 36.961 94.1947 36.0438 93.6175 34.8528C93.0404 33.6544 92.7483 32.2785 92.7412 30.725V29.9261C92.7412 28.3357 93.0258 26.9376 93.5953 25.7318C94.1724 24.5187 94.9825 23.5903 96.0254 22.9467C97.076 22.2957 98.2742 21.9702 99.6207 21.9702C100.967 21.9702 102.162 22.2957 103.205 22.9467C104.255 23.5903 105.065 24.5187 105.635 25.7318C106.212 26.9376 106.5 28.332 106.5 29.915V30.6363ZM103.127 29.904C103.127 28.2099 102.824 26.9228 102.217 26.0425C101.611 25.1622 100.745 24.7221 99.6207 24.7221C98.5034 24.7221 97.6417 25.1585 97.0353 26.0314C96.4288 26.8969 96.1215 28.1692 96.1144 29.8485V30.6363C96.1144 32.2859 96.4174 33.5656 97.0244 34.4755C97.6308 35.3854 98.5034 35.8403 99.6429 35.8403C100.76 35.8403 101.618 35.4039 102.217 34.531C102.816 33.6507 103.119 32.371 103.127 30.6917V29.904ZM121.702 22.1922V38.3481H118.362V24.8885H114.057L113.791 30.5919C113.679 32.5152 113.435 34.0317 113.058 35.1413C112.681 36.2435 112.13 37.0535 111.404 37.5713C110.68 38.0817 109.689 38.3407 108.431 38.3481H107.565V35.6739L108.12 35.6184C108.956 35.5075 109.551 35.0266 109.906 34.1759C110.269 33.3178 110.498 31.7939 110.595 29.6043L110.872 22.1922H121.702ZM143.617 30.6363C143.617 32.2267 143.336 33.6211 142.773 34.8195C142.211 36.0179 141.405 36.9425 140.354 37.5935C139.311 38.2445 138.113 38.57 136.759 38.57C135.524 38.57 134.414 38.3036 133.43 37.771C132.454 37.231 131.659 36.458 131.045 35.452C130.438 34.4459 130.065 33.2697 129.924 31.9234H128.071V38.3481H124.742V22.1922H128.071V29.3381H129.868C129.935 27.8807 130.257 26.5936 130.834 25.4766C131.418 24.3596 132.221 23.4978 133.242 22.8912C134.27 22.2772 135.435 21.9702 136.737 21.9702C138.083 21.9702 139.278 22.2957 140.321 22.9467C141.371 23.5903 142.181 24.5187 142.751 25.7318C143.328 26.9376 143.617 28.332 143.617 29.915V30.6363ZM140.244 29.904C140.244 28.2099 139.94 26.9228 139.334 26.0425C138.727 25.1622 137.861 24.7221 136.737 24.7221C135.62 24.7221 134.758 25.1585 134.151 26.0314C133.545 26.8969 133.238 28.1692 133.231 29.8485V30.6363C133.231 32.2859 133.534 33.5656 134.141 34.4755C134.747 35.3854 135.62 35.8403 136.759 35.8403C137.876 35.8403 138.734 35.4039 139.334 34.531C139.933 33.6507 140.236 32.371 140.244 30.6917V29.904ZM145.903 22.1922H149.231V35.6739H155.7V22.1922H159.04V35.6739H161.248L161.026 42.2428H157.919V38.3481H145.903V22.1922ZM172.977 22.1922H176.317V38.3481H172.977V27.6181L166.508 38.3481H163.179V22.1922H166.508V32.9442L172.977 22.1922ZM186.669 38.3481V32.5226H183.962L181.044 38.3481H177.448L180.9 31.4574C179.235 30.5401 178.403 29.1161 178.403 27.1854C178.403 25.6023 178.921 24.3781 179.956 23.5126C180.992 22.6471 182.438 22.2069 184.295 22.1922H190.009V38.3481H186.669ZM181.731 27.4295C181.731 28.332 181.95 28.9867 182.386 29.3935C182.83 29.8004 183.492 30.0038 184.373 30.0038H186.669V24.8885H184.373C182.612 24.8885 181.731 25.7355 181.731 27.4295Z" fill="white"/>
<path d="M87.2243 48.3455H87.4444C88.1735 48.3498 88.8316 48.5117 89.4187 48.8313C90.0057 49.1504 90.463 49.5968 90.7907 50.1711C91.1187 50.7406 91.283 51.375 91.283 52.0738C91.283 52.7773 91.1211 53.4136 90.7973 53.9832C90.4739 54.5532 90.0185 54.9996 89.4314 55.323C88.8491 55.6468 88.1934 55.813 87.4639 55.8215H87.2243V57.2001H86.4479V55.8215H86.2665C85.5242 55.8215 84.8576 55.6643 84.2663 55.349C83.6797 55.0299 83.22 54.583 82.8876 54.0092C82.5596 53.4354 82.3958 52.7944 82.3958 52.0871C82.3958 51.3835 82.5596 50.7449 82.8876 50.1711C83.22 49.5925 83.6816 49.1437 84.2729 48.8246C84.8642 48.5051 85.5285 48.3455 86.2665 48.3455H86.4479V46.9993H87.2243V48.3455ZM87.2243 49.006V55.1677H87.4122C88.353 55.1677 89.1038 54.885 89.6648 54.3198C90.2254 53.7545 90.5061 53.006 90.5061 52.0738C90.5061 51.1894 90.2448 50.4689 89.7231 49.9121C89.2009 49.3554 88.5016 49.0557 87.6258 49.0121L87.2243 49.006ZM86.2732 49.006C85.3277 49.006 84.575 49.2862 84.0139 49.8473C83.4529 50.4083 83.1727 51.1549 83.1727 52.0871C83.1727 52.9885 83.4335 53.7157 83.9557 54.2682C84.4779 54.8207 85.1791 55.1184 86.0592 55.1615L86.4479 55.1677V49.006H86.2732ZM99.1406 47.3878H99.9369V56.8119H99.1406V48.747L93.7747 56.8119H92.9722V47.3878H93.7747V55.4461L99.1406 47.3878ZM108.559 48.0671H105.329V56.8119H104.533V48.0671H101.309V47.3878H108.559V48.0671ZM117.07 56.8119H116.267V52.294H110.882V56.8119H110.086V47.3878H110.882V51.6207H116.267V47.3878H117.07V56.8119ZM124.676 52.294H120.268V56.1387H125.336V56.8119H119.472V47.3878H125.303V48.0671H120.268V51.6207H124.676V52.294ZM133.692 53.8733C133.584 54.8656 133.228 55.625 132.624 56.1515C132.024 56.6779 131.224 56.9412 130.223 56.9412C129.524 56.9412 128.904 56.7665 128.365 56.4171C127.83 56.0677 127.416 55.5734 127.122 54.9348C126.829 54.2918 126.68 53.5585 126.675 52.7342V51.5109C126.675 50.6739 126.822 49.9315 127.116 49.2843C127.409 48.6367 127.83 48.1386 128.378 47.7888C128.93 47.4351 129.565 47.2582 130.281 47.2582C131.29 47.2582 132.087 47.5322 132.67 48.0804C133.256 48.6239 133.597 49.3771 133.692 50.3391H132.889C132.691 48.7385 131.822 47.9379 130.281 47.9379C129.427 47.9379 128.745 48.257 128.235 48.8956C127.731 49.5343 127.478 50.4168 127.478 51.5431V52.6954C127.478 53.7829 127.724 54.6502 128.216 55.2974C128.712 55.9446 129.381 56.2684 130.223 56.2684C131.056 56.2684 131.683 56.0696 132.106 55.6728C132.529 55.2714 132.79 54.6715 132.889 53.8733H133.692ZM140.974 52.391H139.679V56.8119H138.883V47.3878H139.679V51.7116H140.935L144.579 47.3878H145.582L141.712 52.0222L145.867 56.8119H144.877L140.974 52.391ZM154.224 47.3878V56.8119H153.427V48.0671H149.447L149.226 51.964C149.14 53.3578 149.006 54.3718 148.825 55.0062C148.648 55.6359 148.394 56.0932 148.061 56.3783C147.734 56.6585 147.287 56.8034 146.722 56.8119H146.385V56.1387L146.644 56.1321C147.088 56.1108 147.423 55.9706 147.647 55.7117C147.871 55.4527 148.044 55.0342 148.165 54.4556C148.29 53.8733 148.387 52.9757 148.456 51.7632L148.689 47.3878H154.224ZM159.771 53.4269L162.45 47.3878H163.389L159.745 55.278L159.512 55.7244C159.054 56.5402 158.381 56.9478 157.492 56.9478C157.229 56.9478 157.026 56.9241 156.884 56.8768L156.955 56.2296C157.046 56.2594 157.227 56.2746 157.499 56.2746C158.034 56.2746 158.463 56.0005 158.787 55.4527L158.948 55.1615L159.356 54.3198L155.79 47.3878H156.702L159.771 53.4269ZM170.586 48.0671H165.706V51.4782H168.043C168.686 51.4782 169.242 51.5862 169.713 51.8021C170.183 52.0137 170.541 52.32 170.787 52.721C171.038 53.1182 171.162 53.5883 171.162 54.1323C171.162 54.9651 170.884 55.6208 170.327 56.0999C169.771 56.5747 169.001 56.8119 168.017 56.8119H164.903V47.3878H170.586V48.0671ZM165.706 52.1581V56.1387H168.036C168.766 56.1387 169.335 55.9597 169.745 55.6014C170.155 55.2392 170.36 54.7449 170.36 54.119C170.36 53.5239 170.162 53.0514 169.764 52.7016C169.367 52.3479 168.811 52.1666 168.095 52.1581H165.706Z" fill="white"/>
<path d="M75.0893 71.8481C75.0419 72.3509 74.8563 72.7434 74.533 73.026C74.2091 73.3063 73.7788 73.4469 73.2414 73.4469C72.866 73.4469 72.5351 73.3584 72.2477 73.1813C71.9632 73.0024 71.743 72.7486 71.5878 72.421C71.4325 72.0929 71.3515 71.7123 71.3449 71.2786V70.8383C71.3449 70.3938 71.4239 70.0022 71.5811 69.6637C71.7388 69.3247 71.9641 69.0639 72.2577 68.8802C72.5531 68.697 72.8939 68.6051 73.2803 68.6051C73.8001 68.6051 74.2191 68.7467 74.5363 69.0293C74.853 69.312 75.0377 69.7111 75.0893 70.2266H74.274C74.2352 69.8877 74.1358 69.6438 73.9762 69.4952C73.8186 69.3441 73.5866 69.2689 73.2803 69.2689C72.9242 69.2689 72.6501 69.3991 72.4584 69.6604C72.2685 69.9194 72.1715 70.3 72.1672 70.8028V71.2204C72.1672 71.7293 72.2577 72.1175 72.439 72.3855C72.6222 72.653 72.8897 72.7865 73.2414 72.7865C73.5629 72.7865 73.8048 72.7145 73.9663 72.5696C74.1282 72.4253 74.2309 72.1847 74.274 71.8481H75.0893ZM80.9106 71.1489C80.9106 71.6105 80.8306 72.0162 80.671 72.3661C80.511 72.7131 80.2823 72.9806 79.9845 73.1685C79.6891 73.3541 79.3483 73.4469 78.9619 73.4469C78.5803 73.4469 78.2395 73.3541 77.9393 73.1685C77.6415 72.9806 77.411 72.7145 77.2467 72.3689C77.0848 72.0238 77.0029 71.6256 77.001 71.1749V70.9093C77.001 70.4501 77.0819 70.0444 77.2434 69.6926C77.4077 69.3408 77.6373 69.0724 77.9332 68.8868C78.2305 68.6989 78.5714 68.6051 78.9558 68.6051C79.3397 68.6051 79.6797 68.6979 79.9751 68.8835C80.2729 69.0667 80.5025 69.3323 80.6644 69.6798C80.8263 70.0249 80.9082 70.4274 80.9106 70.8866V71.1489ZM80.0915 70.9032C80.0915 70.381 79.9921 69.9804 79.7938 69.7025C79.5973 69.4242 79.318 69.285 78.9558 69.285C78.6017 69.285 78.3247 69.4242 78.124 69.7025C77.9256 69.9786 77.8238 70.3701 77.8195 70.8771V71.1489C77.8195 71.6668 77.9199 72.0669 78.1206 72.3495C78.3233 72.6321 78.604 72.7737 78.9619 72.7737C79.3246 72.7737 79.603 72.6355 79.7971 72.3594C79.9935 72.0834 80.0915 71.6796 80.0915 71.1489V70.9032ZM85.4077 69.9549C85.4077 69.7433 85.3277 69.5752 85.1682 69.4497C85.0086 69.3247 84.7918 69.2623 84.5177 69.2623C84.2824 69.2623 84.0859 69.3247 83.9287 69.4497C83.7711 69.5728 83.6925 69.7324 83.6925 69.9288H82.8767C82.8767 69.6722 82.9478 69.4436 83.0903 69.2428C83.2328 69.0421 83.4302 68.8868 83.6825 68.7765C83.9349 68.6643 84.2132 68.6084 84.5177 68.6084C85.0569 68.6084 85.4754 68.7259 85.7732 68.9611C86.0734 69.1964 86.223 69.5255 86.223 69.9483C86.223 70.1618 86.1586 70.3582 86.0289 70.5372C85.8996 70.7162 85.7183 70.8577 85.4854 70.9614C85.7486 71.0518 85.9493 71.1901 86.0871 71.3756C86.2277 71.5589 86.2978 71.7875 86.2978 72.0617C86.2978 72.4844 86.1359 72.821 85.812 73.0715C85.4887 73.3196 85.0569 73.4436 84.5177 73.4436C84.1853 73.4436 83.8842 73.3844 83.6148 73.2656C83.3473 73.1468 83.1452 72.9849 83.0093 72.7803C82.8758 72.5753 82.809 72.34 82.809 72.0744H83.6243C83.6243 72.2775 83.7086 72.4489 83.8766 72.5891C84.0452 72.7273 84.2587 72.7964 84.5177 72.7964C84.8069 72.7964 85.0384 72.7283 85.2136 72.5924C85.3902 72.4565 85.4787 72.2794 85.4787 72.0617C85.4787 71.7961 85.4011 71.6043 85.2458 71.4855C85.0924 71.3648 84.8671 71.3042 84.5693 71.3042H84.0158V70.657H84.5404C85.1185 70.657 85.4077 70.4231 85.4077 69.9549ZM92.717 74.5406H91.9406V73.3821H88.8368V74.5406H88.0471L88.0211 72.7283H88.3998C88.5878 72.5469 88.7378 72.2837 88.8496 71.9386C88.9618 71.5911 89.0342 71.1986 89.0664 70.7607L89.1895 68.67H92.1608V72.7283H92.7592L92.717 74.5406ZM89.3254 72.7283H91.345V69.3299H89.9697L89.8921 70.657C89.8338 71.5437 89.6449 72.2345 89.3254 72.7283ZM97.3894 72.2851H95.5638L95.1822 73.3821H94.331L96.1111 68.67H96.8454L98.6288 73.3821H97.7743L97.3894 72.2851ZM95.7939 71.6247H97.1593L96.4766 69.6699L95.7939 71.6247ZM103.378 68.67H104.197V73.3821H103.378V70.0259L101.31 73.3821H100.492V68.67H101.31V72.0295L103.378 68.67ZM103.404 67.4694C103.404 67.7411 103.31 67.9613 103.119 68.1293C102.929 68.2979 102.676 68.3817 102.359 68.3817C102.042 68.3817 101.788 68.2979 101.599 68.1293C101.409 67.9613 101.314 67.7411 101.314 67.4694H101.903C101.903 67.6119 101.942 67.7226 102.022 67.8027C102.104 67.8803 102.216 67.9191 102.359 67.9191C102.501 67.9191 102.613 67.8803 102.692 67.8027C102.772 67.7226 102.812 67.6119 102.812 67.4694H103.404ZM109.908 69.3299H108.439V73.3821H107.626V69.3299H106.17V68.67H109.908V69.3299ZM114.609 71.2786H112.674V72.7283H114.936V73.3821H111.855V68.67H114.913V69.3299H112.674V70.6309H114.609V71.2786ZM123.5 71.8481C123.453 72.3509 123.267 72.7434 122.943 73.026C122.62 73.3063 122.19 73.4469 121.652 73.4469C121.277 73.4469 120.945 73.3584 120.659 73.1813C120.374 73.0024 120.154 72.7486 119.999 72.421C119.843 72.0929 119.762 71.7123 119.756 71.2786V70.8383C119.756 70.3938 119.834 70.0022 119.992 69.6637C120.15 69.3247 120.375 69.0639 120.669 68.8802C120.964 68.697 121.305 68.6051 121.691 68.6051C122.211 68.6051 122.629 68.7467 122.947 69.0293C123.264 69.312 123.449 69.7111 123.5 70.2266H122.684C122.646 69.8877 122.547 69.6438 122.387 69.4952C122.229 69.3441 121.997 69.2689 121.691 69.2689C121.335 69.2689 121.061 69.3991 120.869 69.6604C120.679 69.9194 120.582 70.3 120.578 70.8028V71.2204C120.578 71.7293 120.669 72.1175 120.849 72.3855C121.033 72.653 121.301 72.7865 121.652 72.7865C121.974 72.7865 122.215 72.7145 122.377 72.5696C122.539 72.4253 122.641 72.1847 122.684 71.8481H123.5ZM125.561 73.3821V68.67H127.175C127.708 68.67 128.114 68.7765 128.392 68.9905C128.67 69.204 128.81 69.5222 128.81 69.9449C128.81 70.1608 128.751 70.3549 128.635 70.5277C128.519 70.7001 128.348 70.834 128.124 70.9287C128.378 70.9979 128.574 71.1285 128.713 71.3207C128.853 71.5106 128.923 71.7392 128.923 72.0067C128.923 72.4489 128.781 72.7889 128.496 73.026C128.213 73.2632 127.807 73.3821 127.279 73.3821H125.561ZM126.379 71.2559V72.7283H127.289C127.546 72.7283 127.746 72.6648 127.891 72.5375C128.035 72.4101 128.108 72.233 128.108 72.0067C128.108 71.5167 127.857 71.2668 127.357 71.2559H126.379ZM126.379 70.6537H127.182C127.436 70.6537 127.635 70.5969 127.778 70.4823C127.922 70.3658 127.994 70.202 127.994 69.9904C127.994 69.7575 127.927 69.5889 127.794 69.4857C127.662 69.382 127.456 69.3299 127.175 69.3299H126.379V70.6537ZM134.828 71.1489C134.828 71.6105 134.748 72.0162 134.588 72.3661C134.429 72.7131 134.2 72.9806 133.902 73.1685C133.607 73.3541 133.266 73.4469 132.88 73.4469C132.498 73.4469 132.157 73.3541 131.857 73.1685C131.559 72.9806 131.328 72.7145 131.165 72.3689C131.003 72.0238 130.921 71.6256 130.918 71.1749V70.9093C130.918 70.4501 130.999 70.0444 131.161 69.6926C131.325 69.3408 131.555 69.0724 131.851 68.8868C132.148 68.6989 132.489 68.6051 132.873 68.6051C133.258 68.6051 133.597 68.6979 133.893 68.8835C134.191 69.0667 134.42 69.3323 134.582 69.6798C134.744 70.0249 134.826 70.4274 134.828 70.8866V71.1489ZM134.009 70.9032C134.009 70.381 133.91 69.9804 133.712 69.7025C133.515 69.4242 133.236 69.285 132.873 69.285C132.519 69.285 132.242 69.4242 132.042 69.7025C131.843 69.9786 131.742 70.3701 131.737 70.8771V71.1489C131.737 71.6668 131.838 72.0669 132.038 72.3495C132.241 72.6321 132.522 72.7737 132.88 72.7737C133.242 72.7737 133.521 72.6355 133.715 72.3594C133.911 72.0834 134.009 71.6796 134.009 71.1489V70.9032ZM139.723 71.2786H137.788V72.7283H140.05V73.3821H136.969V68.67H140.028V69.3299H137.788V70.6309H139.723V71.2786ZM147.996 69.3299H145.824V70.4723H146.789C147.134 70.4723 147.435 70.532 147.692 70.6504C147.949 70.7692 148.144 70.9377 148.278 71.1555C148.412 71.3733 148.478 71.6256 148.478 71.9125C148.478 72.3528 148.328 72.7069 148.029 72.9744C147.731 73.2419 147.324 73.3778 146.809 73.3821H145.006V68.67H147.996V69.3299ZM145.824 71.1295V72.7283H146.786C147.062 72.7283 147.276 72.6539 147.43 72.5048C147.585 72.3538 147.663 72.1544 147.663 71.9064C147.663 71.6692 147.587 71.4812 147.436 71.343C147.285 71.2052 147.076 71.1337 146.809 71.1295H145.824ZM152.15 71.1328L153.095 68.67H154.005L152.364 72.5796L152.215 72.8741C151.999 73.258 151.65 73.4502 151.167 73.4502L150.83 73.4308L150.837 72.7832C150.888 72.7922 150.98 72.7964 151.112 72.7964C151.345 72.7964 151.508 72.697 151.604 72.4986L151.772 72.1005L150.16 68.67H151.053L152.15 71.1328ZM160.023 74.5406H159.246V73.3821H156.143V74.5406H155.353L155.327 72.7283H155.706C155.893 72.5469 156.043 72.2837 156.156 71.9386C156.268 71.5911 156.34 71.1986 156.372 70.7607L156.496 68.67H159.466V72.7283H160.065L160.023 74.5406ZM156.631 72.7283H158.651V69.3299H157.275L157.198 70.657C157.139 71.5437 156.951 72.2345 156.631 72.7283ZM163.702 71.1328L164.647 68.67H165.556L163.915 72.5796L163.767 72.8741C163.551 73.258 163.201 73.4502 162.718 73.4502L162.381 73.4308L162.387 72.7832C162.439 72.7922 162.531 72.7964 162.662 72.7964C162.896 72.7964 163.06 72.697 163.155 72.4986L163.323 72.1005L161.711 68.67H162.604L163.702 71.1328ZM168.341 68.67V72.7283H169.778V68.67H170.594V72.7283H172.021V68.67H172.837V72.7543H173.387L173.322 74.515H172.604V73.3821H167.519V68.67H168.341ZM178.194 71.2786H176.259V72.7283H178.522V73.3821H175.44V68.67H178.499V69.3299H176.259V70.6309H178.194V71.2786ZM183.268 71.2786H181.333V72.7283H183.595V73.3821H180.514V68.67H183.572V69.3299H181.333V70.6309H183.268V71.2786Z" fill="white"/>
<path d="M64.8603 72.9086C65.9061 72.9086 66.754 72.0608 66.754 71.0149C66.754 69.969 65.9061 69.1212 64.8603 69.1212C63.8144 69.1212 62.9665 69.969 62.9665 71.0149C62.9665 72.0608 63.8144 72.9086 64.8603 72.9086Z" fill="white"/>
<path d="M190.32 72.9086C191.366 72.9086 192.214 72.0608 192.214 71.0149C192.214 69.969 191.366 69.1212 190.32 69.1212C189.274 69.1212 188.426 69.969 188.426 71.0149C188.426 72.0608 189.274 72.9086 190.32 72.9086Z" fill="white"/>
<defs>
<radialGradient id="paint0_radial" cx="0" cy="0" r="1" gradientUnits="userSpaceOnUse" gradientTransform="translate(55.2524 72.3206) scale(75.8974)">
<stop stop-color="white"/>
<stop offset="0.5" stop-color="#D54B9B"/>
<stop offset="1" stop-color="#664199"/>
</radialGradient>
<radialGradient id="paint1_radial" cx="0" cy="0" r="1" gradientUnits="userSpaceOnUse" gradientTransform="translate(12.579 31.1224) scale(26.5853)">
<stop stop-color="white"/>
<stop offset="0.5" stop-color="#D54B9B"/>
<stop offset="1" stop-color="#664199"/>
</radialGradient>
<linearGradient id="paint2_linear" x1="54.0717" y1="66.9746" x2="10.6596" y2="66.9746" gradientUnits="userSpaceOnUse">
<stop stop-color="white"/>
<stop offset="1" stop-color="white" stop-opacity="0"/>
</linearGradient>
<radialGradient id="paint3_radial" cx="0" cy="0" r="1" gradientUnits="userSpaceOnUse" gradientTransform="translate(69.428 58.4401) scale(96.941)">
<stop stop-color="white"/>
<stop offset="0.5" stop-color="#95BB34"/>
<stop offset="1" stop-color="#64751C"/>
</radialGradient>
<radialGradient id="paint4_radial" cx="0" cy="0" r="1" gradientUnits="userSpaceOnUse" gradientTransform="translate(14.2031 14.7325) scale(28.7951)">
<stop stop-color="white"/>
<stop offset="0.5" stop-color="#95BB34"/>
<stop offset="1" stop-color="#64751C"/>
</radialGradient>
<radialGradient id="paint5_radial" cx="0" cy="0" r="1" gradientUnits="userSpaceOnUse" gradientTransform="translate(26.902 97.5721) scale(33.9761)">
<stop stop-color="white"/>
<stop offset="0.5" stop-color="#95BB34"/>
<stop offset="1" stop-color="#64751C"/>
</radialGradient>
<linearGradient id="paint6_linear" x1="59.6823" y1="54.2928" x2="15.2365" y2="54.2928" gradientUnits="userSpaceOnUse">
<stop stop-color="white"/>
<stop offset="1" stop-color="white" stop-opacity="0"/>
</linearGradient>
<radialGradient id="paint7_radial" cx="0" cy="0" r="1" gradientUnits="userSpaceOnUse" gradientTransform="translate(39.7485 0.114108) scale(76.7302)">
<stop stop-color="white"/>
<stop offset="0.5" stop-color="#FBB03B"/>
<stop offset="1" stop-color="#C4272E"/>
</radialGradient>
<radialGradient id="paint8_radial" cx="0" cy="0" r="1" gradientUnits="userSpaceOnUse" gradientTransform="translate(62.6361 45.7412) scale(40.0169)">
<stop stop-color="white"/>
<stop offset="0.5" stop-color="#FBB03B"/>
<stop offset="1" stop-color="#C4272E"/>
</radialGradient>
<radialGradient id="paint9_radial" cx="0" cy="0" r="1" gradientUnits="userSpaceOnUse" gradientTransform="translate(25.4255 70.8435) scale(23.4821)">
<stop stop-color="white"/>
<stop offset="0.5" stop-color="#FBB03B"/>
<stop offset="1" stop-color="#C4272E"/>
</radialGradient>
<linearGradient id="paint10_linear" x1="74.5959" y1="26.9305" x2="19.9618" y2="26.9305" gradientUnits="userSpaceOnUse">
<stop stop-color="white"/>
<stop offset="1" stop-color="white" stop-opacity="0"/>
</linearGradient>
<linearGradient id="paint11_linear" x1="15.9494" y1="-14.6516" x2="15.9494" y2="35.1119" gradientUnits="userSpaceOnUse">
<stop stop-color="white"/>
<stop offset="1" stop-color="white" stop-opacity="0"/>
</linearGradient>
<radialGradient id="paint12_radial" cx="0" cy="0" r="1" gradientUnits="userSpaceOnUse" gradientTransform="translate(22.0292 -2.10089) scale(34.2583)">
<stop stop-color="white"/>
<stop offset="0.5" stop-color="#FBB03B"/>
<stop offset="1" stop-color="#C4272E"/>
</radialGradient>
<linearGradient id="paint13_linear" x1="20.0002" y1="0.556549" x2="20.0002" y2="12.9916" gradientUnits="userSpaceOnUse">
<stop stop-color="white"/>
<stop offset="1" stop-color="white" stop-opacity="0"/>
</linearGradient>
</defs>
</svg>
