<svg width="12" height="12" viewBox="0 0 12 12" fill="none" xmlns="http://www.w3.org/2000/svg">
<path d="M5.99985 0.000300042C2.68621 0.000300042 0 2.68651 0 6.00015C0 9.31379 2.68621 12 5.99985 12H9.74976C9.74976 12 10.4529 12 10.4997 11.25C10.4997 10.5 9.74976 10.5 9.74976 10.5H5.99985C3.51464 10.5 1.49996 8.48536 1.49996 6.00015C1.49996 3.51494 3.51464 1.50026 5.99985 1.50026C8.48506 1.50026 10.4997 3.51494 10.4997 6.00015V6.75013C10.4997 7.16433 10.164 7.50011 9.74976 7.50011C9.33556 7.50011 8.99977 7.16433 8.99977 6.75013V6.00015C8.99977 4.34337 7.65663 3.00022 5.99985 3.00022C4.34307 3.00022 2.99993 4.34337 2.99993 6.00015C2.99993 7.65693 4.34307 9.00008 5.99985 9.00008C6.78448 9.00008 7.49254 8.69191 8.02712 8.1988C8.45461 8.70653 9.08535 8.99977 9.74983 8.99977C10.9924 8.99977 11.9998 7.9924 11.9998 6.74983V5.99985C11.9998 2.68643 9.31334 0 5.99992 0L5.99985 0.000300042ZM5.99985 4.50019C6.82828 4.50019 7.49981 5.17174 7.49981 6.00015C7.49981 6.82856 6.82826 7.50011 5.99985 7.50011C5.17144 7.50011 4.49989 6.82856 4.49989 6.00015C4.49989 5.17174 5.17144 4.50019 5.99985 4.50019Z" fill="white"/>
</svg>
