<svg width="12" height="12" viewBox="0 0 12 12" fill="none" xmlns="http://www.w3.org/2000/svg">
<path d="M11.9745 9.29836C11.9405 9.19609 11.7246 9.04542 11.3268 8.84672C11.219 8.78409 11.0654 8.69898 10.8667 8.591C10.6679 8.48302 10.4873 8.38353 10.3255 8.29259C10.1633 8.20169 10.0114 8.11363 9.86947 8.02852C9.84678 8.01147 9.77576 7.96183 9.65644 7.87925C9.537 7.79692 9.43628 7.73581 9.35374 7.69596C9.27137 7.65634 9.19035 7.6364 9.1108 7.6364C8.99718 7.6364 8.85526 7.71742 8.68486 7.87925C8.51446 8.04129 8.35815 8.21731 8.21617 8.40783C8.07416 8.59826 7.92355 8.77427 7.76462 8.93622C7.60544 9.09823 7.47466 9.17916 7.37251 9.17916C7.32122 9.17916 7.25727 9.16486 7.18064 9.13665C7.10404 9.10826 7.04577 9.08393 7.00576 9.06432C6.96612 9.04428 6.89809 9.00464 6.80142 8.94479C6.70458 8.88511 6.65073 8.85242 6.63938 8.84672C5.86097 8.41478 5.19338 7.92042 4.63648 7.36376C4.07976 6.80677 3.58534 6.13923 3.15352 5.36073C3.14784 5.34936 3.1151 5.29536 3.05548 5.19881C2.99577 5.10218 2.95598 5.03409 2.9361 4.9942C2.91622 4.95447 2.89207 4.8962 2.86371 4.8195C2.83535 4.74281 2.82111 4.67893 2.82111 4.62773C2.82111 4.52552 2.9021 4.39476 3.06405 4.23565C3.22597 4.07662 3.40216 3.92598 3.59244 3.78404C3.78287 3.64209 3.95888 3.48578 4.12086 3.31538C4.28278 3.14489 4.36374 3.00291 4.36374 2.88929C4.36374 2.80979 4.34386 2.72874 4.30413 2.64638C4.26436 2.56384 4.20329 2.46311 4.12086 2.34373C4.03841 2.22441 3.9887 2.15345 3.97163 2.13061C3.88649 1.98867 3.79851 1.83669 3.70749 1.67473C3.61647 1.51281 3.51712 1.33232 3.40912 1.13348C3.3012 0.934717 3.21603 0.781244 3.15346 0.673297C2.9547 0.27563 2.80415 0.0596158 2.70185 0.0256434C2.66205 0.00859757 2.60235 0 2.52288 0C2.36938 0 2.16912 0.02836 1.92197 0.0852592C1.67473 0.142069 1.48018 0.201655 1.33812 0.264256C1.05401 0.383517 0.752884 0.730107 0.434655 1.30391C0.144875 1.83791 0 2.36645 0 2.88914C0 3.04243 0.00994094 3.19158 0.0298228 3.3366C0.0497047 3.48148 0.0852294 3.64486 0.136427 3.82672C0.187534 4.00853 0.228761 4.14358 0.259927 4.23153C0.291123 4.31953 0.349366 4.47718 0.434625 4.70454C0.519765 4.93184 0.570962 5.07098 0.588008 5.12212C0.786857 5.67899 1.02266 6.17613 1.29537 6.61368C1.74405 7.34095 2.35636 8.09255 3.13193 8.86818C3.90754 9.64376 4.65899 10.256 5.38632 10.7049C5.82381 10.9776 6.32112 11.2134 6.87791 11.4123C6.92907 11.4293 7.06822 11.4804 7.29543 11.5658C7.52272 11.651 7.68043 11.7093 7.76844 11.7405C7.85648 11.7718 7.99156 11.8131 8.17321 11.8643C8.35526 11.9155 8.51849 11.951 8.66336 11.971C8.80833 11.9906 8.9575 12.0007 9.11083 12.0007C9.63349 12.0007 10.1621 11.8558 10.6962 11.566C11.2699 11.2479 11.6164 10.9467 11.7357 10.6624C11.7985 10.5205 11.8579 10.3259 11.9147 10.0787C11.9717 9.83153 12 9.63131 12 9.47783C12.0002 9.39804 11.9916 9.33848 11.9745 9.29836Z" fill="white"/>
</svg>
