<svg width="15" height="12" viewBox="0 0 15 12" fill="none" xmlns="http://www.w3.org/2000/svg">
<path d="M14.25 6.74996H2.56058L6.5303 10.7197C6.82318 11.0126 6.82318 11.4873 6.5303 11.7802C6.23743 12.073 5.7625 12.073 5.46962 11.7802L0.219655 6.53021C-0.0732183 6.23734 -0.0732183 5.7624 0.219655 5.46972L5.46962 0.219749C5.61606 0.0733122 5.80806 0 6.00006 0C6.19187 0 6.38387 0.0733122 6.5303 0.219749C6.82318 0.512622 6.82318 0.987556 6.5303 1.28024L2.56058 5.24997H14.25C14.6642 5.24997 15 5.58578 15 5.99996C15 6.41415 14.6642 6.74996 14.25 6.74996Z" fill="white"/>
</svg>
