<svg width="40" height="40" viewBox="0 0 40 40" fill="none" xmlns="http://www.w3.org/2000/svg">
<mask id="path-1-inside-1" fill="white">
<path d="M20 0C14.6957 0 9.60859 2.10714 5.85786 5.85786C2.10714 9.60859 0 14.6957 0 20C0 25.3043 2.10714 30.3914 5.85786 34.1421C9.60859 37.8929 14.6957 40 20 40C25.3043 40 30.3914 37.8929 34.1421 34.1421C37.8929 30.3914 40 25.3043 40 20C40 14.6957 37.8929 9.60859 34.1421 5.85786C30.3914 2.10714 25.3043 0 20 0"/>
</mask>
<path d="M0 20L-3 20L0 20ZM20 40L20 43L20 40ZM40 20L43 20L40 20ZM20 -3C13.9 -3 8.04988 -0.576793 3.73654 3.73654L7.97918 7.97918C11.1673 4.79107 15.4913 3 20 3V-3ZM3.73654 3.73654C-0.576793 8.04988 -3 13.9 -3 20L3 20C3 15.4913 4.79107 11.1673 7.97918 7.97918L3.73654 3.73654ZM-3 20C-3 26.1 -0.576793 31.9501 3.73654 36.2635L7.97918 32.0208C4.79107 28.8327 3 24.5087 3 20L-3 20ZM3.73654 36.2635C8.04988 40.5768 13.9 43 20 43V37C15.4913 37 11.1673 35.2089 7.97918 32.0208L3.73654 36.2635ZM20 43C26.1 43 31.9501 40.5768 36.2635 36.2635L32.0208 32.0208C28.8327 35.2089 24.5087 37 20 37L20 43ZM36.2635 36.2635C40.5768 31.9501 43 26.1 43 20L37 20C37 24.5087 35.2089 28.8327 32.0208 32.0208L36.2635 36.2635ZM43 20C43 13.9 40.5768 8.04988 36.2635 3.73654L32.0208 7.97918C35.2089 11.1673 37 15.4913 37 20L43 20ZM36.2635 3.73654C31.9501 -0.576793 26.1 -3 20 -3V3C24.5087 3 28.8327 4.79107 32.0208 7.97918L36.2635 3.73654Z" fill="white" mask="url(#path-1-inside-1)"/>
</svg>
