<svg width="117" height="117" viewBox="0 0 117 117" fill="none" xmlns="http://www.w3.org/2000/svg">
<circle cx="58.5" cy="58.5" r="58" stroke="#FB5B21"/>
<path d="M78.6205 76.8239L68.2931 66.6615C70.9975 63.7233 72.6592 59.8374 72.6592 55.5614C72.6579 46.4142 65.1236 39 55.829 39C46.5343 39 39 46.4142 39 55.5614C39 64.7086 46.5343 72.1228 55.829 72.1228C59.8449 72.1228 63.5282 70.7337 66.4215 68.4244L76.7889 78.6268C77.294 79.1244 78.1142 79.1244 78.6193 78.6268C79.1256 78.1292 79.1256 77.3215 78.6205 76.8239ZM55.829 69.5747C47.9646 69.5747 41.5894 63.3007 41.5894 55.5614C41.5894 47.822 47.9646 41.5481 55.829 41.5481C63.6933 41.5481 70.0685 47.822 70.0685 55.5614C70.0685 63.3007 63.6933 69.5747 55.829 69.5747Z" fill="#FB5B21"/>
</svg>
