<svg width="16" height="17" viewBox="0 0 16 17" fill="none" xmlns="http://www.w3.org/2000/svg">
<path d="M13.4846 0H2.51541C1.12669 0 0 1.12669 0 2.51779V13.487C0 14.8757 1.12669 16.0024 2.51541 16.0024H13.4846C14.8733 16.0024 16 14.8757 16 13.487V2.51779C16 1.12669 14.8733 0 13.4846 0ZM11.7836 1.85083L13.794 1.84606H13.7988C13.9917 1.84368 14.1489 2.00089 14.1489 2.19145V4.20902C14.1489 4.40196 13.9941 4.5568 13.8012 4.5568L11.7931 4.56394C11.6002 4.56394 11.4453 4.40911 11.4453 4.21855L11.4382 2.20098C11.4358 2.00804 11.5907 1.85321 11.7836 1.85083ZM5.54772 6.62677C5.60012 6.53625 5.65491 6.44573 5.71684 6.35998C6.22897 5.65014 7.0603 5.18565 7.99881 5.18565C8.93971 5.18565 9.77103 5.65014 10.2832 6.35998C10.3451 6.44573 10.3999 6.53625 10.4523 6.62915C10.681 7.03409 10.8167 7.50335 10.8167 8.00119C10.8167 9.55427 9.55188 10.8167 7.99881 10.8167C6.44574 10.8167 5.18327 9.55427 5.18327 8.00119C5.18303 7.50335 5.31666 7.03409 5.54772 6.62677ZM14.4422 12.9105C14.4422 13.7561 13.7538 14.4445 12.9081 14.4445H3.09186C2.24624 14.4445 1.55784 13.7561 1.55784 12.9105V6.35998H3.947C3.88745 6.50529 3.83505 6.65773 3.79217 6.81018C3.6826 7.18892 3.62543 7.5891 3.62543 8.00119C3.62543 10.4142 5.58821 12.377 7.99881 12.377C10.4118 12.377 12.3746 10.4142 12.3746 8.00119C12.3746 7.5891 12.315 7.18892 12.2078 6.81018C12.1626 6.65773 12.1126 6.50529 12.053 6.35998H14.4422V12.9105Z" fill="#FB5B21"/>
</svg>
