<svg width="16" height="10" viewBox="0 0 16 10" fill="none" xmlns="http://www.w3.org/2000/svg">
<path fill-rule="evenodd" clip-rule="evenodd" d="M7.82817 9.08953H8.78455C8.78455 9.08953 9.07344 9.05782 9.22093 8.89882C9.35668 8.75286 9.35234 8.47874 9.35234 8.47874C9.35234 8.47874 9.33366 7.19545 9.92925 7.00648C10.5164 6.82033 11.2703 8.24675 12.0694 8.79521C12.6737 9.2103 13.1329 9.11929 13.1329 9.11929L15.2696 9.08953C15.2696 9.08953 16.3874 9.02068 15.8574 8.14184C15.8139 8.06994 15.5487 7.49173 14.2687 6.30358C12.9289 5.06005 13.1084 5.26119 14.7222 3.11015C15.7051 1.80015 16.098 1.00038 15.9753 0.657834C15.8582 0.331583 15.1354 0.417816 15.1354 0.417816L12.7295 0.432804C12.7295 0.432804 12.5512 0.408476 12.4189 0.487541C12.2897 0.565085 12.2065 0.745805 12.2065 0.745805C12.2065 0.745805 11.8257 1.75953 11.3179 2.62164C10.2466 4.44078 9.81826 4.53679 9.64319 4.42384C9.23592 4.16058 9.33757 3.36624 9.33757 2.80193C9.33757 1.03904 9.60496 0.303998 8.81692 0.113721C8.55539 0.0505127 8.36294 0.00880818 7.69415 0.00207464C6.83573 -0.00683101 6.10916 0.00468089 5.69777 0.206253C5.42408 0.340272 5.21295 0.638937 5.34154 0.656097C5.50054 0.677383 5.86067 0.75319 6.0516 1.01319C6.29814 1.34857 6.28945 2.10185 6.28945 2.10185C6.28945 2.10185 6.43107 4.17709 5.95864 4.43492C5.63434 4.61173 5.18949 4.25072 4.23441 2.60035C3.74504 1.75497 3.37556 0.820525 3.37556 0.820525C3.37556 0.820525 3.30432 0.645887 3.17725 0.552487C3.02303 0.43932 2.80755 0.403264 2.80755 0.403264L0.521408 0.41825C0.521408 0.41825 0.178215 0.427808 0.0522323 0.577032C-0.0598486 0.709748 0.0433266 0.984303 0.0433266 0.984303C0.0433266 0.984303 1.83315 5.1717 3.85972 7.2819C5.71797 9.2166 7.82817 9.08953 7.82817 9.08953Z" fill="#FB5B21"/>
</svg>
