<svg width="16" height="16" viewBox="0 0 16 16" fill="none" xmlns="http://www.w3.org/2000/svg">
<path d="M7.9998 0.000400056C3.58161 0.000400056 0 3.58201 0 8.0002C0 12.4184 3.58161 16 7.9998 16H12.9997C12.9997 16 13.9372 16 13.9997 15C13.9997 14 12.9997 14 12.9997 14H7.9998C4.68618 14 1.99995 11.3138 1.99995 8.0002C1.99995 4.68658 4.68618 2.00035 7.9998 2.00035C11.3134 2.00035 13.9997 4.68658 13.9997 8.0002V9.00018C13.9997 9.55244 13.5519 10.0001 12.9997 10.0001C12.4474 10.0001 11.9997 9.55244 11.9997 9.00018V8.0002C11.9997 5.79116 10.2088 4.0003 7.9998 4.0003C5.79076 4.0003 3.9999 5.79116 3.9999 8.0002C3.9999 10.2092 5.79076 12.0001 7.9998 12.0001C9.04597 12.0001 9.99005 11.5892 10.7028 10.9317C11.2728 11.6087 12.1138 11.9997 12.9998 11.9997C14.6565 11.9997 15.9997 10.6565 15.9997 8.99977V7.9998C15.9997 3.58191 12.4178 0 7.9999 0L7.9998 0.000400056ZM7.9998 6.00025C9.10437 6.00025 9.99975 6.89566 9.99975 8.0002C9.99975 9.10474 9.10434 10.0001 7.9998 10.0001C6.89526 10.0001 5.99985 9.10474 5.99985 8.0002C5.99985 6.89566 6.89526 6.00025 7.9998 6.00025Z" fill="#FB5B21"/>
</svg>
