<svg width="12" height="12" viewBox="0 0 12 12" fill="none" xmlns="http://www.w3.org/2000/svg">
<path d="M5.625 10.5H6.375V9.75H5.625V10.5ZM6 1.5C5.793 1.5 5.625 1.668 5.625 1.875V5.634H2.625C2.418 5.634 2.25 5.802 2.25 6.009C2.25 6.216 2.418 6.384 2.625 6.384H6C6.207 6.384 6.375 6.216 6.375 6.009V1.875C6.375 1.668 6.207 1.5 6 1.5ZM2.52488 8.562L3.04388 9.08212L3.56288 8.562L3.04388 8.04188L2.52488 8.562ZM3.63486 3.12112L3.10424 2.59088L2.57398 3.12112L3.10424 3.65137L3.63486 3.12112ZM8.27849 3.10237L8.79751 3.62249L9.31651 3.10237L8.79751 2.58226L8.27849 3.10237ZM8.16863 8.54175L8.69888 9.072L9.22914 8.54175L8.69888 8.01151L8.16863 8.54175ZM9.75 5.625V6.375H10.5V5.625H9.75ZM6 0C2.68612 0 0 2.68651 0 6C0 9.31388 2.68612 12 6 12C9.31388 12 12 9.31349 12 6C12 2.68651 9.31388 0 6 0ZM6 11.25C3.10049 11.25 0.75 8.89951 0.75 6C0.75 3.10049 3.10049 0.75 6 0.75C8.89951 0.75 11.25 3.10049 11.25 6C11.25 8.89951 8.89951 11.25 6 11.25Z" fill="white"/>
</svg>
